<?xml version="1.0" encoding="utf-8"?>
<!-- Generator: Adobe Illustrator 16.0.0, SVG Export Plug-In . SVG Version: 6.00 Build 0)  -->
<!DOCTYPE svg PUBLIC "-//W3C//DTD SVG 1.1//EN" "http://www.w3.org/Graphics/SVG/1.1/DTD/svg11.dtd">
<svg version="1.1" id="Layer_1" xmlns="http://www.w3.org/2000/svg" xmlns:xlink="http://www.w3.org/1999/xlink" x="0px" y="0px"
	 width="185.892px" height="182.131px" viewBox="0 0 185.892 182.131" enable-background="new 0 0 185.892 182.131"
	 xml:space="preserve">
<pattern  x="-102" y="-141.141" width="72" height="72" patternUnits="userSpaceOnUse" id="Mezzotint_Irregular" viewBox="51.688 -85.483 72 72" overflow="visible">
	<g>
		<polygon fill="none" points="51.688,-85.483 123.688,-85.483 123.688,-13.483 51.688,-13.483 		"/>
		<g>
			<path fill="none" stroke="#231F20" stroke-width="0.3" d="M119.938-9.983c2.25-0.5,7,0,6,1.75s4,7,4.5,5.5s-2-4.5,0.75-4.75
				s5.75,3,7.5,3.25s5.5-1.5,3.25-3s-2.75-4.5-5.5-4.25s-7-0.25-6-3"/>
			<path fill="none" stroke="#231F20" stroke-width="0.3" d="M120.938-12.483c1.75,0.5,5.5,0.25,6,1.75s2.75,2.75,2.75,1.5
				s-1.75-2.75-1.75-2.75s-4-3.5-2-4"/>
			<path fill="none" stroke="#231F20" stroke-width="0.3" d="M122.688-5.233c1.5,1.5,3.5,2.75,5.5,3.75s5,2,5.25,0.75
				s-2.75-3.25-1-3.25s3.25,2,6.5,1.75s9.25-4,7.25-4.75s-3.75-3.5-5.5-4.5s-2.75-1-4-1s-4-1.25-2-2"/>
		</g>
		<g>
			<path fill="none" stroke="#231F20" stroke-width="0.3" d="M47.938-9.983c2.25-0.5,7,0,6,1.75s4,7,4.5,5.5s-2-4.5,0.75-4.75
				s5.75,3,7.5,3.25s5.5-1.5,3.25-3s-2.75-4.5-5.5-4.25s-7-0.25-6-3"/>
			<path fill="none" stroke="#231F20" stroke-width="0.3" d="M75.438-14.483c1.25,0.5,4.25,3,3.25,4.75s-0.5,3.25,1,3.5
				s6.25-2,5.75-3.25s-1.75-3.25,0-4.5"/>
			<path fill="none" stroke="#231F20" stroke-width="0.3" d="M97.438-16.733c1.75,1,1.75,2,0.5,3.25s-6.5,1.25-5.75,2.5s5,4,7.75,4
				s3-3.5,4.75-4"/>
			<path fill="none" stroke="#231F20" stroke-width="0.3" d="M105.688-12.233c0.75-0.5,0.75-1,0.5-3"/>
			<path fill="none" stroke="#231F20" stroke-width="0.3" d="M107.938-19.233c0,1.5-0.375,5.601-0.375,6.875
				c0,1.375,0.5,1.875,0.5,1.875"/>
			<path fill="none" stroke="#231F20" stroke-width="0.3" d="M48.938-12.483c1.75,0.5,5.5,0.25,6,1.75s2.75,2.75,2.75,1.5
				s-1.75-2.75-1.75-2.75s-4-3.5-2-4"/>
			<path fill="none" stroke="#231F20" stroke-width="0.3" d="M77.688-15.233c1.75,0.5,3.75,1,3.5,2.75s0.25,4,0.75,2.75s0-4,1.5-5"
				/>
			<path fill="none" stroke="#231F20" stroke-width="0.3" d="M100.438-19.983c1.25,2.25,1.5,6.25-0.25,7.5s-3,3-1.5,2.75
				s4-0.75,4.75-3s2.25-8.75,0.75-9.5"/>
			<path fill="none" stroke="#231F20" stroke-width="0.3" d="M109.688-19.983c-1,1.5-1,4.5,0.25,5.75s2.5,0.75,2.75,2.25
				s1.5,3.25,2.5,3.25s2.5-2,3.25-2.75c1-1,2.5-1,2.5-1c1.75,0.5,5.5,0.25,6,1.75"/>
			<path fill="none" stroke="#231F20" stroke-width="0.3" d="M50.688-5.233c1.5,1.5,3.5,2.75,5.5,3.75s5,2,5.25,0.75
				s-2.75-3.25-1-3.25s3.25,2,6.5,1.75s9.25-4,7.25-4.75s-3.75-3.5-5.5-4.5s-2.75-1-4-1s-4-1.25-2-2"/>
			<path fill="none" stroke="#231F20" stroke-width="0.3" d="M73.938-13.983c1,2,2.25,3.25,2.5,5s-0.5,4.75,2,4.75
				c0.634,0,1.316-0.049,2.014-0.156"/>
			<path fill="none" stroke="#231F20" stroke-width="0.3" d="M82.5-4.89c1.375-0.469,2.688-1.219,3.688-2.344
				c2-2.25,0.25-2.75,0.5-4s6-4,7-3.25s-1.25,0-2.25,1.75s-4.25,6.25,1,6.5s6.25,1.25,6.5,2.25s5,0.75,5-0.5s1.5-6,2-4.75s2,3.5,5,5
				"/>
			<path fill="none" stroke="#231F20" stroke-width="0.3" d="M112.938-14.733c1.25,1.25,1.5,3.75,2.75,3s2.75-2.25,3.5-2.75"/>
		</g>
		<g>
			<path fill="none" stroke="#231F20" stroke-width="0.3" d="M37.688-19.983c-1,1.5-1,4.5,0.25,5.75s2.5,0.75,2.75,2.25
				s1.5,3.25,2.5,3.25s2.5-2,3.25-2.75c1-1,2.5-1,2.5-1c1.75,0.5,5.5,0.25,6,1.75"/>
		</g>
		<g>
			<path fill="none" stroke="#231F20" stroke-width="0.3" d="M118.438-16.733c3.863-2.44,6.032-7.021,10.5-8.5
				c-0.151,1.054-0.104,2.299,0.616,2.848c1.178,0.9,2.416,0.625,3.884,0.152c0.969-3.206,3.09-7.295,6.977-6.402
				c1.391,0.319,1.32,1.988,2.145,2.776c0.854,0.816,2.232,1.673,3.267,0.964c1.189-0.816,2.373-1.207,3.634-1.792
				c0.728-0.338,0.198-1.305,0.972-1.566c1.88-0.637,2.174,1.36,3.507,2.021c-0.106,1.858-0.029,3.673,0.512,5.497
				c0.694,2.336,3.374,1.622,4.988,0.503c-0.314-0.261,0.625-1.75,0.5-3.375c0.513-3.658-1.721-6.91,2.098-8.367
				c3.719-1.418,7.868-0.392,11.874-0.953c1.155-0.162,2.447-0.378,3.434-0.963c1.359-0.809,2.558-1.909,4.095-2.342
				c0.199,0.784,1.378,0.199,1.459,1.005c0.22,2.177,1.654,3.67,2.755,5.354c0.194,0.298,0.514,1.065,1.174,1.377
				c0.872,0.413,0.74,2.107,1.112,3.264"/>
			<path fill="none" stroke="#231F20" stroke-width="0.3" d="M121.063-23.108c1.508-0.742,3.13-1.227,4.5-2.25
				c0.087-0.859,0.825-1.39,1.026-2.243c0.047-0.199,0.381-0.256,0.396-0.291c0.706-1.565,2.286-2.378,3.824-1.71
				c0.374,0.162,0.177,0.871,0.753,0.744c0,0.251,0.082,0.605-0.042,0.69c-1.252,0.86-1.343,2.354-1.07,3.527
				c0.189,0.815,1.123,1.553,2.112,0.782c-0.23-2.832,1.053-5.251,3.33-6.889c1.202-0.863,2.723-0.696,4.17-0.611
				c-0.07,0.557,0.369,0.094,0.5,0.25"/>
			<path fill="none" stroke="#231F20" stroke-width="0.3" d="M121.438-26.733c1.75-0.25,3.75-2.5,5.25-4s3-2.5,4.5-2.25
				s1,3.25,3.25,0.25s3.75-2,5.25-1.75s5,2,6.25,0.5s-2-6,0.25-6.25s3.25,3.25,5.25,4.5s3,2.75,4.25,0.75s3.25-3.75,5.5-3
				s3,0.75,5,0.75"/>
			<path fill="none" stroke="#231F20" stroke-width="0.3" d="M140.945-43.604c-0.965,0.061-1.905,0.12-2.757,0.12
				c-3.5,0-4,2.5-1.5,3s4.5,2.5,6.5,4s-1.5,1-3.5,0s-3,0-5.5,2s-1.5-0.5-3-1s-3,0.5-4.5,2s-3.5,0.5-7.5-0.5"/>
			<path fill="none" stroke="#231F20" stroke-width="0.3" d="M120.438-37.233c1.5,0.75,3.25,2.25,5.25,1.25s3.25-2.5,4.5-2
				s2.5,2.25,4,1.25s3.25-0.75,1.5-2.5s-5.25-3-4-4s3.75-3.25,6.5-3.25s15-2.25,14.5,0.25s-1.75,8.25,0,7.25s3.25-2.75,4.75-2.75
				s2.75-0.25,3.25-2.75s3-3.75,4-2.75s2.5,2.25,2.25,0.5s0.5-4.5,4-4.25c0.481,0.034,1.071,0.078,1.739,0.133"/>
			<path fill="none" stroke="#231F20" stroke-width="0.3" d="M120.938-16.233c1-1.25,2.75-3,4.5-4.75s2.75-1.25,3,0.25
				s0.75,2.5,2.25,2.25s5.5-3,6-5.25s1.75-3.75,3-2.75s2,4,4.25,4s7.5-4.75,7.75-3s-0.5,4,0.25,6.5s2.5,2.5,5,1.5s4.5-2,4.75-3.5"/>
			<path fill="none" stroke="#231F20" stroke-width="0.3" d="M119.938-81.983c2.25-0.5,7,0,6,1.75s4,7,4.5,5.5s-2-4.5,0.75-4.75
				s5.75,3,7.5,3.25s5.5-1.5,3.25-3s-2.75-4.5-5.5-4.25s-7-0.25-6-3"/>
			<path fill="none" stroke="#231F20" stroke-width="0.3" d="M122.188-40.733c1.75,1,2,2,4,1.25s2.5-1,2.5-1c2,1,3.5,1.5,3.25,0.5
				c-0.858-3.431-5.773-3.014-5-4.25c1.25-2,5.25-2.25,6.75-4.25s-0.5-3.75,1.75-4.75s5.5,1,6.25,2.25s4.5,2.25,7.5,1.5
				s7.25-2,6.75,0.5s-1.25,5.75,0.25,4.5s5.25-8.5,7.5-8.25s3.25,0,6.25-0.25s9.5,0.5,9.25-2s-4.75-8.25-1-8.25
				c1.704,0,3.615,0.568,5.24,1.517"/>
			<path fill="none" stroke="#231F20" stroke-width="0.3" d="M120.938-84.483c1.75,0.5,5.5,0.25,6,1.75s2.75,2.75,2.75,1.5
				s-1.75-2.75-1.75-2.75s-4-3.5-2-4"/>
			<path fill="none" stroke="#231F20" stroke-width="0.3" d="M121.188-49.483c1.25,0.5,3.25,2.25,4,1.25s-8-3-0.5-4.75
				s6.25-1,7.25-3.5s-6.5-3.25-4.5-4.5s9.331-2.959,11.75-1.75c3,1.5,1.5,3.75,1.75,4.5s-1,4.75,2.5,6s5,2.5,8,0.75s7-3.25,7-2
				s-0.25,2,2.5,0.25s7.25-3.25,9.75-3s5-0.5,4-2.25s-3.75-2.75-5-4.75s0.75-3.25,3.25-3.5s12,0.75,13.75,2.25s2.25,5.5,2.25,8
				s-1,3.25,1.75,5.25"/>
			<path fill="none" stroke="#231F20" stroke-width="0.3" d="M121.438-55.483c2.25,0.5,4.25,0,5.25-0.5s-2.5-3-4.75-3.75"/>
			<path fill="none" stroke="#231F20" stroke-width="0.3" d="M121.938-64.733c3.75-0.5,7.25-1.5,9.75-1s7.75-0.5,9.75,3"/>
			<path fill="none" stroke="#231F20" stroke-width="0.3" d="M122.188-68.733c3.5,0.5,10.75,2,12.5,2c0.554,0,1.784,0,3.247,0.056"
				/>
			<path fill="none" stroke="#231F20" stroke-width="0.3" d="M122.688-77.233c1.5,1.5,3.5,2.75,5.5,3.75s5,2,5.25,0.75
				s-2.75-3.25-1-3.25s3.25,2,6.5,1.75s9.25-4,7.25-4.75s-3.75-3.5-5.5-4.5s-2.75-1-4-1s-4-1.25-2-2"/>
			<path fill="none" stroke="#231F20" stroke-width="0.3" d="M122.188-71.233c1.75,0.5,10.25,2.75,14.25,2.5s10.75-0.5,11.75,0.25
				s0.25,2,0.5,3.25s1,2.25,2.25,1s3.75-2,5-1.5s3.5,1.25,3.25,0s-2.75-3.25-1.5-5.5s7-6.5,6.5-4.25s-1.25,5.25,0.5,4.5s5-2,8-1.5"
				/>
			<path fill="none" stroke="#231F20" stroke-width="0.3" d="M122.438-73.983c3,1.5,9.5,4,16,3.75s6.25-1.75,4.75-1.75
				s0.25-2.5,2.25-2.5s4.5,1.5,4.75,3.25s1,3,2.25,2.75s1-1,2.75-4s2.5-3,4-4.75s1.5,0,2.25,0.25s6.25-0.75,6.25,0.5s-3.75,3-2,3
				s9.75-1.5,11.5-0.75"/>
		</g>
		<g>
			<path fill="none" stroke="#231F20" stroke-width="0.3" d="M46.438-16.733c3.863-2.44,6.032-7.021,10.5-8.5
				c-0.151,1.054-0.104,2.299,0.616,2.848c1.178,0.9,2.416,0.625,3.884,0.152c0.969-3.206,3.09-7.295,6.977-6.402
				c1.391,0.319,1.32,1.988,2.145,2.776c0.854,0.816,2.232,1.673,3.267,0.964c1.189-0.816,2.373-1.207,3.634-1.792
				c0.728-0.338,0.198-1.305,0.972-1.566c1.88-0.637,2.174,1.36,3.507,2.021c-0.106,1.858-0.029,3.673,0.512,5.497
				c0.694,2.336,3.374,1.622,4.988,0.503c-0.314-0.261,0.625-1.75,0.5-3.375c0.513-3.658-1.721-6.91,2.098-8.367
				c3.719-1.418,7.868-0.392,11.874-0.953c1.155-0.162,2.447-0.378,3.434-0.963c1.359-0.809,2.558-1.909,4.095-2.342
				c0.199,0.784,1.378,0.199,1.459,1.005c0.22,2.177,1.654,3.67,2.755,5.354c0.194,0.298,0.514,1.065,1.174,1.377
				c0.872,0.413,0.74,2.107,1.112,3.264"/>
			<path fill="none" stroke="#231F20" stroke-width="0.3" d="M128.938-25.233c-4.468,1.479-6.637,6.06-10.5,8.5
				c-1.516,0.958-2.624,1.114-3.934,0.757c-1.233-0.338-0.398-2.072-0.547-3.259c-0.183-1.469,1.57-0.876,2.175-1.882
				c0.603-1.006,0.806-1.491,0.556-2.741"/>
			<path fill="none" stroke="#231F20" stroke-width="0.3" d="M49.063-23.108c1.508-0.742,3.13-1.227,4.5-2.25
				c0.087-0.859,0.825-1.39,1.026-2.243c0.047-0.199,0.381-0.256,0.396-0.291c0.706-1.565,2.286-2.378,3.824-1.71
				c0.374,0.162,0.177,0.871,0.753,0.744c0,0.251,0.082,0.605-0.042,0.69c-1.252,0.86-1.343,2.354-1.07,3.527
				c0.189,0.815,1.123,1.553,2.112,0.782c-0.23-2.832,1.053-5.251,3.33-6.889c1.202-0.863,2.723-0.696,4.17-0.611
				c-0.07,0.557,0.369,0.094,0.5,0.25"/>
			<path fill="none" stroke="#231F20" stroke-width="0.3" d="M121.063-23.108c1.508-0.742,3.13-1.227,4.5-2.25"/>
			<path fill="none" stroke="#231F20" stroke-width="0.3" d="M120.063-21.608c-0.845,0.455-1.071,1.446-1.593,2.185
				c-0.111,0.158-0.455,0.185-0.407,0.565c-0.535-0.122-0.975,0.413-1.494,0.23c-0.334-0.118-0.396-0.521-0.214-0.684
				c0.358-0.324,0.262-0.893,0.482-0.946c0.729-0.182,0.267-1.142,0.976-1.101c0.363-1.485,0.5-3.031,0.117-4.465
				c-0.501-1.876-1.628-3.489-2.367-5.285"/>
			<path fill="none" stroke="#231F20" stroke-width="0.3" d="M114.688-32.483c-1.75-2.25-3-3.5-3.25-4.75s-0.5-2.25-1.75-2.25
				s-2.25,1.5-4.25,2.5s-9.25,2.25-11.25,2s-6-1-7-0.25s-1.75,4.25-1.75,6.25s0.25,4.75,0,5.75s-1.75,2.75-2-0.5s-0.5-4.75-2.25-6.5
				s-4.75-2.75-5-1.5s0.75,2.25,0.25,2.75s-2.25,1.25-3.25,1s-1.5-1-2.25-1.5"/>
			<path fill="none" stroke="#231F20" stroke-width="0.3" d="M49.438-26.733c1.75-0.25,3.75-2.5,5.25-4s3-2.5,4.5-2.25
				s1,3.25,3.25,0.25s3.75-2,5.25-1.75s5,2,6.25,0.5s-2-6,0.25-6.25s3.25,3.25,5.25,4.5s3,2.75,4.25,0.75s3.25-3.75,5.5-3
				s3,0.75,5,0.75"/>
			<path fill="none" stroke="#231F20" stroke-width="0.3" d="M97.438-37.483c1.5-0.25,6.25-1,7.5-2.25s-1.75-5-0.25-5.5
				s5.5,0.25,7,1.5s2.75,5,3.25,7.25s3.75,4.75,4.25,6.5s0,4.5,0.5,5s1-1.5,1.75-1.75c1.677-0.56,3.75-2.5,5.25-4"/>
			<path fill="none" stroke="#231F20" stroke-width="0.3" d="M126.688-33.483c-1.5,1.5-3.5,0.5-7.5-0.5c0,0-2.25-1-2.5-6.5
				s-3.75-6.75-6.25-7.5s-12.75-2-13.5-0.5s3.75,3.5,4.5,5s-0.25,3.75-2,3.5s-1.75-2.75-3.25-3.5s-5.5-1-5.75,1.25
				s-4.25,2.25-4.25,2.25c-2.5-0.5-3,4-5,4s-2.5-4.5-4.5-6.5c-1-1-2.75-1.25-4.688-1.25"/>
			<path fill="none" stroke="#231F20" stroke-width="0.3" d="M68.945-43.604c-0.965,0.061-1.905,0.12-2.757,0.12c-3.5,0-4,2.5-1.5,3
				s4.5,2.5,6.5,4s-1.5,1-3.5,0s-3,0-5.5,2s-1.5-0.5-3-1s-3,0.5-4.5,2s-3.5,0.5-7.5-0.5"/>
			<path fill="none" stroke="#231F20" stroke-width="0.3" d="M48.438-37.233c1.5,0.75,3.25,2.25,5.25,1.25s3.25-2.5,4.5-2
				s2.5,2.25,4,1.25s3.25-0.75,1.5-2.5s-5.25-3-4-4s3.75-3.25,6.5-3.25s15-2.25,14.5,0.25s-1.75,8.25,0,7.25s3.25-2.75,4.75-2.75
				s2.75-0.25,3.25-2.75s3-3.75,4-2.75s2.5,2.25,2.25,0.5s0.5-4.5,4-4.25c0.481,0.034,1.071,0.078,1.739,0.133"/>
			<path fill="none" stroke="#231F20" stroke-width="0.3" d="M102.683-50.672c4.182,0.404,9.73,1.15,11.756,2.438
				c2.75,1.75,4.5,6,4.75,8.5"/>
			<path fill="none" stroke="#231F20" stroke-width="0.3" d="M120.438-37.233c1.5,0.75,3.25,2.25,5.25,1.25"/>
			<path fill="none" stroke="#231F20" stroke-width="0.3" d="M64.438-11.483c-2.75,0.25-7-0.25-6-3s7.5-4.5,8.25-6
				s2.75-1.75,3.75,0.25s3.75,5.25,5,5.75s4.25,3,3.25,4.75"/>
			<path fill="none" stroke="#231F20" stroke-width="0.3" d="M85.438-9.483c-0.5-1.25-1.75-3.25,0-4.5s10.25-3.75,12-2.75
				s1.75,2,0.5,3.25s-6.5,1.25-5.75,2.5"/>
			<path fill="none" stroke="#231F20" stroke-width="0.3" d="M48.938-16.233c1-1.25,2.75-3,4.5-4.75s2.75-1.25,3,0.25
				s0.75,2.5,2.25,2.25s5.5-3,6-5.25s1.75-3.75,3-2.75s2,4,4.25,4s7.5-4.75,7.75-3s-0.5,4,0.25,6.5s2.5,2.5,5,1.5s4.5-2,4.75-3.5"/>
			<path fill="none" stroke="#231F20" stroke-width="0.3" d="M120.938-16.233c1-1.25,2.75-3,4.5-4.75"/>
			<path fill="none" stroke="#231F20" stroke-width="0.3" d="M55.938-11.983c0,0-4-3.5-2-4s4,0,6-1.25s5.25-3.25,6-4.75
				s1.75-2.5,2.5-1.5s2,2,3.75,2.5s3-1,3.75,0.75s0,4.5,1.75,5s3.75,1,3.5,2.75"/>
			<path fill="none" stroke="#231F20" stroke-width="0.3" d="M81.938-9.733c0.5-1.25,0-4,1.5-5s6.25-2.75,7-4
				c0.691-1.152,3.931-1.879,6.001-1.986"/>
			<path fill="none" stroke="#231F20" stroke-width="0.3" d="M98.188-20.733c0.23,0.176,1.937,0.188,2.25,0.75
				c1.25,2.25,1.5,6.25-0.25,7.5"/>
			<path fill="none" stroke="#231F20" stroke-width="0.3" d="M103.438-12.733c0.75-2.25,2.25-8.75,0.75-9.5s-4.75-1.5-2.75-3.5
				s5.75-3.75,6.75-3.25s4.5,3.5,3.75,5.25s-1.25,2.25-2.25,3.75s-1,4.5,0.25,5.75s2.5,0.75,2.75,2.25"/>
			<path fill="none" stroke="#231F20" stroke-width="0.3" d="M89.938-22.733c0-1.25-0.5-2.5,0.25-4.5s2.75-3,3-1.5s-1.5,4.75,0,5
				s2.5,0.5,3.25-1s-1.25-3.25,0-4.25s6.25-2.75,7.75-2.25s2.75-0.25,3.75-0.5"/>
			<path fill="none" stroke="#231F20" stroke-width="0.3" d="M109.688-31.733c1-0.25,2.25,1.5,2.5,3s2.25,2.75,2.5,3.75
				s-2.25,5-2.75,6.25s-0.25,2.75,1,4s1.5,3.75,2.75,3s2.75-2.25,3.5-2.75"/>
			<path fill="none" stroke="#231F20" stroke-width="0.3" d="M105.688-12.233c0.75-0.5,0.75-1,0.5-3s0.75-6.75,0-7.75s-1.5-3,0-2.5
				c0.824,0.274,2.514-0.086,2.75,1.375c0.192,1.197-1,4.199-1,4.875c0,1.5-0.375,5.601-0.375,6.875"/>
			<path fill="none" stroke="#231F20" stroke-width="0.3" d="M47.938-81.983c2.25-0.5,7,0,6,1.75s4,7,4.5,5.5s-2-4.5,0.75-4.75
				s5.75,3,7.5,3.25s5.5-1.5,3.25-3s-2.75-4.5-5.5-4.25s-7-0.25-6-3"/>
			<path fill="none" stroke="#231F20" stroke-width="0.3" d="M75.438-86.483c1.25,0.5,4.25,3,3.25,4.75s-0.5,3.25,1,3.5
				s6.25-2,5.75-3.25s-1.75-3.25,0-4.5"/>
			<path fill="none" stroke="#231F20" stroke-width="0.3" d="M97.438-88.733c1.75,1,1.75,2,0.5,3.25s-6.5,1.25-5.75,2.5s5,4,7.75,4
				s3-3.5,4.75-4"/>
			<path fill="none" stroke="#231F20" stroke-width="0.3" d="M105.688-84.233c0.75-0.5,0.75-1,0.5-3"/>
			<path fill="none" stroke="#231F20" stroke-width="0.3" d="M107.938-91.233c0,1.5-0.375,5.601-0.375,6.875
				c0,1.375,0.5,1.875,0.5,1.875"/>
			<path fill="none" stroke="#231F20" stroke-width="0.3" d="M50.188-40.733c1.75,1,2,2,4,1.25s2.5-1,2.5-1c2,1,3.5,1.5,3.25,0.5
				c-0.858-3.431-5.773-3.014-5-4.25c1.25-2,5.25-2.25,6.75-4.25s-0.5-3.75,1.75-4.75s5.5,1,6.25,2.25s4.5,2.25,7.5,1.5
				s7.25-2,6.75,0.5s-1.25,5.75,0.25,4.5s5.25-8.5,7.5-8.25s3.25,0,6.25-0.25s9.5,0.5,9.25-2s-4.75-8.25-1-8.25
				c1.704,0,3.615,0.568,5.24,1.517"/>
			<path fill="none" stroke="#231F20" stroke-width="0.3" d="M114.099-59.437c0.574,0.75,0.965,1.578,1.09,2.453
				c0.5,3.5,0.25,5.75,2.25,7"/>
			<path fill="none" stroke="#231F20" stroke-width="0.3" d="M122.188-40.733c1.75,1,2,2,4,1.25"/>
			<path fill="none" stroke="#231F20" stroke-width="0.3" d="M118.688-49.233c1,1,2,3,2,4s-0.5,2.25,0.25,3.25"/>
			<path fill="none" stroke="#231F20" stroke-width="0.3" d="M48.938-84.483c1.75,0.5,5.5,0.25,6,1.75s2.75,2.75,2.75,1.5
				s-1.75-2.75-1.75-2.75s-4-3.5-2-4"/>
			<path fill="none" stroke="#231F20" stroke-width="0.3" d="M77.688-87.233c1.75,0.5,3.75,1,3.5,2.75s0.25,4,0.75,2.75s0-4,1.5-5"
				/>
			<path fill="none" stroke="#231F20" stroke-width="0.3" d="M100.438-91.983c1.25,2.25,1.5,6.25-0.25,7.5s-3,3-1.5,2.75
				s4-0.75,4.75-3s2.25-8.75,0.75-9.5"/>
			<path fill="none" stroke="#231F20" stroke-width="0.3" d="M109.688-91.983c-1,1.5-1,4.5,0.25,5.75s2.5,0.75,2.75,2.25
				s1.5,3.25,2.5,3.25s2.5-2,3.25-2.75c1-1,2.5-1,2.5-1c1.75,0.5,5.5,0.25,6,1.75"/>
			<path fill="none" stroke="#231F20" stroke-width="0.3" d="M49.188-49.483c1.25,0.5,3.25,2.25,4,1.25s-8-3-0.5-4.75
				s6.25-1,7.25-3.5s-6.5-3.25-4.5-4.5s9.331-2.959,11.75-1.75c3,1.5,1.5,3.75,1.75,4.5s-1,4.75,2.5,6s5,2.5,8,0.75s7-3.25,7-2
				s-0.25,2,2.5,0.25s7.25-3.25,9.75-3s5-0.5,4-2.25s-3.75-2.75-5-4.75s0.75-3.25,3.25-3.5s12,0.75,13.75,2.25s2.25,5.5,2.25,8
				s-1,3.25,1.75,5.25"/>
			<path fill="none" stroke="#231F20" stroke-width="0.3" d="M121.188-49.483c1.25,0.5,3.25,2.25,4,1.25s-8-3-0.5-4.75"/>
			<path fill="none" stroke="#231F20" stroke-width="0.3" d="M49.438-55.483c2.25,0.5,4.25,0,5.25-0.5s-2.5-3-4.75-3.75"/>
			<path fill="none" stroke="#231F20" stroke-width="0.3" d="M49.938-64.733c3.75-0.5,7.25-1.5,9.75-1s7.75-0.5,9.75,3"/>
			<path fill="none" stroke="#231F20" stroke-width="0.3" d="M121.438-55.483c2.25,0.5,4.25,0,5.25-0.5s-2.5-3-4.75-3.75
				s-3.75-4.5,0-5s7.25-1.5,9.75-1"/>
			<path fill="none" stroke="#231F20" stroke-width="0.3" d="M120.188-55.733c-1.25-0.75-2-2.25-2-4s-2-7.5-5-7.75
				s-20.25-2-20.75,0.25s3.25,4.5,4,5.5s0.5,3.25-0.75,3.5s-4,1-3.75-0.5s-1-3.25-2.5-1.5c-0.75,0.875-2.657,1.5-3.75,2.25"/>
			<path fill="none" stroke="#231F20" stroke-width="0.3" d="M83.938-56.733c-1.75,1.75-4.75,3-6.75,3s-6.25-0.5-6-2.75
				s0.25-3.25-0.25-4.25"/>
			<path fill="none" stroke="#231F20" stroke-width="0.3" d="M50.188-68.733c3.5,0.5,10.75,2,12.5,2c0.554,0,1.784,0,3.247,0.056"/>
			<path fill="none" stroke="#231F20" stroke-width="0.3" d="M69.925-66.378c2,0.249,3.748,0.673,4.264,1.395
				c1.25,1.75-0.25,4.75-0.75,6.25s-1,2.75,0.5,2.75s6.75,0.25,6-1.25s-3.25-2.25-2.5-3.75s7-2.5,8.25-2.25s3.75,1.25,4.75,0.25
				s-0.75-1.5-0.25-3.5"/>
			<path fill="none" stroke="#231F20" stroke-width="0.3" d="M122.188-68.733c3.5,0.5,10.75,2,12.5,2"/>
			<path fill="none" stroke="#231F20" stroke-width="0.3" d="M91.188-67.983c2-1,3.25-2.25,7.75-2s17.5,1.25,18,2.25s2,1.75,2.5,0.5
				s1.25-1.5,1.25-1.5"/>
			<path fill="none" stroke="#231F20" stroke-width="0.3" d="M50.688-77.233c1.5,1.5,3.5,2.75,5.5,3.75s5,2,5.25,0.75
				s-2.75-3.25-1-3.25s3.25,2,6.5,1.75s9.25-4,7.25-4.75s-3.75-3.5-5.5-4.5s-2.75-1-4-1s-4-1.25-2-2"/>
			<path fill="none" stroke="#231F20" stroke-width="0.3" d="M73.938-85.983c1,2,2.25,3.25,2.5,5s-0.5,4.75,2,4.75
				c0.634,0,1.316-0.049,2.014-0.156"/>
			<path fill="none" stroke="#231F20" stroke-width="0.3" d="M82.5-76.89c1.375-0.469,2.688-1.219,3.688-2.344
				c2-2.25,0.25-2.75,0.5-4s6-4,7-3.25s-1.25,0-2.25,1.75s-4.25,6.25,1,6.5s6.25,1.25,6.5,2.25s5,0.75,5-0.5s1.5-6,2-4.75s2,3.5,5,5
				"/>
			<path fill="none" stroke="#231F20" stroke-width="0.3" d="M122.688-77.233c1.5,1.5,3.5,2.75,5.5,3.75"/>
			<path fill="none" stroke="#231F20" stroke-width="0.3" d="M119.938-81.983c2.25-0.5,7,0,6,1.75"/>
			<path fill="none" stroke="#231F20" stroke-width="0.3" d="M109.688-81.483c0.75,1,3.25,2.25,4,3.25s2.25,2.5,3,0.75
				s-0.25-3.5,1.5-4"/>
			<path fill="none" stroke="#231F20" stroke-width="0.3" d="M121.938-77.983c-1.5-1.5-3.25-2.25-3.25-1.25s2.75,1.75,1.75,3.25
				s-5,2.5-6.5,1.75s-1.75-1.25-1.75-1.25"/>
			<path fill="none" stroke="#231F20" stroke-width="0.3" d="M50.188-71.233c1.75,0.5,10.25,2.75,14.25,2.5s10.75-0.5,11.75,0.25
				s0.25,2,0.5,3.25s1,2.25,2.25,1s3.75-2,5-1.5s3.5,1.25,3.25,0s-2.75-3.25-1.5-5.5s7-6.5,6.5-4.25s-1.25,5.25,0.5,4.5s5-2,8-1.5"
				/>
			<path fill="none" stroke="#231F20" stroke-width="0.3" d="M122.188-71.233c1.75,0.5,10.25,2.75,14.25,2.5"/>
			<path fill="none" stroke="#231F20" stroke-width="0.3" d="M120.438-71.483c-1.5-0.5-3.61-0.197-3.25,1c0.75,2.5-3.25-0.25-6-0.75
				s-6-0.75-7-0.75"/>
			<path fill="none" stroke="#231F20" stroke-width="0.3" d="M50.438-73.983c3,1.5,9.5,4,16,3.75s6.25-1.75,4.75-1.75
				s0.25-2.5,2.25-2.5s4.5,1.5,4.75,3.25s1,3,2.25,2.75s1-1,2.75-4s2.5-3,4-4.75s1.5,0,2.25,0.25s6.25-0.75,6.25,0.5s-3.75,3-2,3
				s9.75-1.5,11.5-0.75"/>
			<path fill="none" stroke="#231F20" stroke-width="0.3" d="M122.438-73.983c3,1.5,9.5,4,16,3.75"/>
			<path fill="none" stroke="#231F20" stroke-width="0.3" d="M121.938-74.233c-2-0.875-4.25,2.25-7,1.75s-4.75-1-6.25-1.25
				s-2.25-0.25-2.25-0.25"/>
			<path fill="none" stroke="#231F20" stroke-width="0.3" d="M64.688-12.483c-1.25,0-4-1.25-2-2c2.75-2,9.5-2.25,11.25,0.5
				c1,2,2.25,3.25,2.5,5"/>
			<path fill="none" stroke="#231F20" stroke-width="0.3" d="M86.688-11.233c0.25-1.25,6-4,7-3.25s-1.25,0-2.25,1.75"/>
			<path fill="none" stroke="#231F20" stroke-width="0.3" d="M112.938-86.733c1.25,1.25,1.5,3.75,2.75,3s2.75-2.25,3.5-2.75"/>
		</g>
		<g>
			<path fill="none" stroke="#231F20" stroke-width="0.3" d="M56.938-25.233c-4.468,1.479-6.637,6.06-10.5,8.5
				c-1.516,0.958-2.624,1.114-3.934,0.757c-1.233-0.338-0.398-2.072-0.547-3.259c-0.183-1.469,1.57-0.876,2.175-1.882
				c0.603-1.006,0.806-1.491,0.556-2.741"/>
			<path fill="none" stroke="#231F20" stroke-width="0.3" d="M49.063-23.108c1.508-0.742,3.13-1.227,4.5-2.25"/>
			<path fill="none" stroke="#231F20" stroke-width="0.3" d="M25.438-37.483c1.5-0.25,6.25-1,7.5-2.25s-1.75-5-0.25-5.5
				s5.5,0.25,7,1.5s2.75,5,3.25,7.25s3.75,4.75,4.25,6.5s0,4.5,0.5,5s1-1.5,1.75-1.75c1.677-0.56,3.75-2.5,5.25-4"/>
			<path fill="none" stroke="#231F20" stroke-width="0.3" d="M54.688-33.483c-1.5,1.5-3.5,0.5-7.5-0.5c0,0-2.25-1-2.5-6.5
				s-3.75-6.75-6.25-7.5s-12.75-2-13.5-0.5s3.75,3.5,4.5,5s-0.25,3.75-2,3.5s-1.75-2.75-3.25-3.5s-5.5-1-5.75,1.25
				s-4.25,2.25-4.25,2.25c-2.5-0.5-3,4-5,4s-2.5-4.5-4.5-6.5c-1-1-2.75-1.25-4.688-1.25"/>
			<path fill="none" stroke="#231F20" stroke-width="0.3" d="M48.438-37.233c1.5,0.75,3.25,2.25,5.25,1.25"/>
			<path fill="none" stroke="#231F20" stroke-width="0.3" d="M48.938-16.233c1-1.25,2.75-3,4.5-4.75"/>
			<path fill="none" stroke="#231F20" stroke-width="0.3" d="M50.188-40.733c1.75,1,2,2,4,1.25"/>
			<path fill="none" stroke="#231F20" stroke-width="0.3" d="M37.688-91.983c-1,1.5-1,4.5,0.25,5.75s2.5,0.75,2.75,2.25
				s1.5,3.25,2.5,3.25s2.5-2,3.25-2.75c1-1,2.5-1,2.5-1c1.75,0.5,5.5,0.25,6,1.75"/>
			<path fill="none" stroke="#231F20" stroke-width="0.3" d="M49.188-49.483c1.25,0.5,3.25,2.25,4,1.25s-8-3-0.5-4.75"/>
			<path fill="none" stroke="#231F20" stroke-width="0.3" d="M49.438-55.483c2.25,0.5,4.25,0,5.25-0.5s-2.5-3-4.75-3.75
				s-3.75-4.5,0-5s7.25-1.5,9.75-1"/>
			<path fill="none" stroke="#231F20" stroke-width="0.3" d="M50.188-68.733c3.5,0.5,10.75,2,12.5,2"/>
			<path fill="none" stroke="#231F20" stroke-width="0.3" d="M50.688-77.233c1.5,1.5,3.5,2.75,5.5,3.75"/>
			<path fill="none" stroke="#231F20" stroke-width="0.3" d="M47.938-81.983c2.25-0.5,7,0,6,1.75"/>
			<path fill="none" stroke="#231F20" stroke-width="0.3" d="M50.188-71.233c1.75,0.5,10.25,2.75,14.25,2.5"/>
			<path fill="none" stroke="#231F20" stroke-width="0.3" d="M50.438-73.983c3,1.5,9.5,4,16,3.75"/>
		</g>
		<g>
			<path fill="none" stroke="#231F20" stroke-width="0.3" d="M64.438-83.483c-2.75,0.25-7-0.25-6-3s7.5-4.5,8.25-6
				s2.75-1.75,3.75,0.25s3.75,5.25,5,5.75s4.25,3,3.25,4.75"/>
			<path fill="none" stroke="#231F20" stroke-width="0.3" d="M85.438-81.483c-0.5-1.25-1.75-3.25,0-4.5s10.25-3.75,12-2.75
				s1.75,2,0.5,3.25s-6.5,1.25-5.75,2.5"/>
			<path fill="none" stroke="#231F20" stroke-width="0.3" d="M55.938-83.983c0,0-4-3.5-2-4s4,0,6-1.25s5.25-3.25,6-4.75
				s1.75-2.5,2.5-1.5s2,2,3.75,2.5s3-1,3.75,0.75s0,4.5,1.75,5s3.75,1,3.5,2.75"/>
			<path fill="none" stroke="#231F20" stroke-width="0.3" d="M81.938-81.733c0.5-1.25,0-4,1.5-5s6.25-2.75,7-4
				c0.691-1.152,3.931-1.879,6.001-1.986"/>
			<path fill="none" stroke="#231F20" stroke-width="0.3" d="M98.188-92.733c0.23,0.176,1.937,0.188,2.25,0.75
				c1.25,2.25,1.5,6.25-0.25,7.5"/>
			<path fill="none" stroke="#231F20" stroke-width="0.3" d="M103.438-84.733c0.75-2.25,2.25-8.75,0.75-9.5s-4.75-1.5-2.75-3.5
				s5.75-3.75,6.75-3.25s4.5,3.5,3.75,5.25s-1.25,2.25-2.25,3.75s-1,4.5,0.25,5.75s2.5,0.75,2.75,2.25"/>
			<path fill="none" stroke="#231F20" stroke-width="0.3" d="M109.688-103.733c1-0.25,2.25,1.5,2.5,3s2.25,2.75,2.5,3.75
				s-2.25,5-2.75,6.25s-0.25,2.75,1,4s1.5,3.75,2.75,3s2.75-2.25,3.5-2.75"/>
			<path fill="none" stroke="#231F20" stroke-width="0.3" d="M105.688-84.233c0.75-0.5,0.75-1,0.5-3s0.75-6.75,0-7.75s-1.5-3,0-2.5
				c0.824,0.274,2.514-0.086,2.75,1.375c0.192,1.197-1,4.199-1,4.875c0,1.5-0.375,5.601-0.375,6.875"/>
			<path fill="none" stroke="#231F20" stroke-width="0.3" d="M64.688-84.483c-1.25,0-4-1.25-2-2c2.75-2,9.5-2.25,11.25,0.5
				c1,2,2.25,3.25,2.5,5"/>
			<path fill="none" stroke="#231F20" stroke-width="0.3" d="M86.688-83.233c0.25-1.25,6-4,7-3.25s-1.25,0-2.25,1.75"/>
		</g>
	</g>
</pattern>
<text transform="matrix(1 0 0 1 39.333 17.5098)" font-family="'CourierNewPS-BoldMT'" font-size="22">I</text>
<text transform="matrix(0.583 0 0 0.583 52.5352 24.8359)" font-family="'CourierNewPS-BoldMT'" font-size="22">ex</text>
<text transform="matrix(1 0 0 1 106.3335 123.1772)" font-family="'CourierNewPS-BoldMT'" font-size="14">c,ε</text>
<rect x="31.5" y="45.359" opacity="0.4" fill="url(#Mezzotint_Irregular)" stroke="#000000" stroke-miterlimit="10" width="102" height="81"/>
<rect x="31.5" y="45.359" fill="none" stroke="#000000" stroke-miterlimit="10" width="102" height="81"/>
<g>
	<g>
		<line fill="none" stroke="#000000" stroke-width="2" stroke-miterlimit="10" x1="52" y1="30.859" x2="52" y2="70.859"/>
		<g>
			<polygon points="47.713,69.859 52.5,78.149 57.287,69.859 			"/>
		</g>
	</g>
</g>
<text transform="matrix(1 0 0 1 82.5 17.5103)" font-family="'CourierNewPS-BoldMT'" font-size="22">I</text>
<text transform="matrix(0.583 0 0 0.583 95.7021 24.8364)" font-family="'CourierNewPS-BoldMT'" font-size="22">em</text>
<text transform="matrix(1 0 0 1 120.667 110.8442)" font-family="'CourierNewPS-BoldMT'" font-size="14">V</text>
<g>
	<g>
		<line fill="none" stroke="#000000" stroke-width="2" stroke-miterlimit="10" x1="52" y1="91.859" x2="52" y2="128.859"/>
		<g>
			<polygon points="47.886,127.859 52.5,135.849 57.114,127.859 			"/>
		</g>
	</g>
</g>
<line fill="none" stroke="#000000" stroke-miterlimit="10" x1="31.5" y1="45.859" x2="31.5" y2="30.859"/>
<line fill="none" stroke="#000000" stroke-miterlimit="10" x1="133.5" y1="45.859" x2="133.5" y2="30.859"/>
<line fill="none" stroke="#000000" stroke-miterlimit="10" x1="165" y1="30.359" x2="133" y2="30.359"/>
<line fill="none" stroke="#000000" stroke-miterlimit="10" x1="32" y1="30.359" x2="0" y2="30.359"/>
<rect x="31.5" y="81.359" opacity="0.6" stroke="#000000" stroke-miterlimit="10" width="102" height="4"/>
<rect x="31.5" y="81.359" fill="none" stroke="#000000" stroke-miterlimit="10" width="102" height="4"/>
<g>
	<g>
		<line fill="none" stroke="#000000" stroke-width="2" stroke-miterlimit="10" x1="94" y1="31.859" x2="94" y2="33.859"/>
		
			<line fill="none" stroke="#000000" stroke-width="2" stroke-miterlimit="10" stroke-dasharray="3,3" x1="94" y1="36.859" x2="94" y2="71.859"/>
		<line fill="none" stroke="#000000" stroke-width="2" stroke-miterlimit="10" x1="94" y1="73.859" x2="94" y2="74.859"/>
		<g>
			<polygon points="89.154,36.07 90.022,36.878 93.999,32.599 97.977,36.878 98.845,36.07 93.999,30.859 			"/>
		</g>
	</g>
</g>
<g>
	<g>
		<line fill="none" stroke="#000000" stroke-width="2" stroke-miterlimit="10" x1="94" y1="133.859" x2="94" y2="132.859"/>
		
			<line fill="none" stroke="#000000" stroke-width="2" stroke-miterlimit="10" stroke-dasharray="3,3" x1="94" y1="129.859" x2="94" y2="94.859"/>
		<line fill="none" stroke="#000000" stroke-width="2" stroke-miterlimit="10" x1="94" y1="92.859" x2="94" y2="91.859"/>
		<g>
			<polygon points="98.81,130.354 97.948,129.552 94.001,133.799 90.053,129.552 89.192,130.354 94.001,135.526 			"/>
		</g>
	</g>
</g>
<g>
	<g>
		<line fill="none" stroke="#4D4D4D" stroke-miterlimit="10" x1="25.5" y1="75.859" x2="25.5" y2="48.859"/>
		<g>
			<path fill="#4D4D4D" d="M26,81.359c0.948-2.556,2.566-5.727,4.28-7.692L26,75.214l-4.279-1.548
				C23.435,75.632,25.053,78.803,26,81.359z"/>
		</g>
	</g>
</g>
<text transform="matrix(1.0602 0.0364 -0.0344 0.9994 11.2397 68.6587)" fill="#4D4D4D" font-family="'TimesNewRomanPS-ItalicMT'" font-size="14">xl</text>
<g>
	<g>
		<line fill="none" stroke="#4D4D4D" stroke-miterlimit="10" x1="144.5" y1="121.859" x2="144.5" y2="50.859"/>
		<g>
			<path fill="#4D4D4D" d="M145,127.359c0.948-2.556,2.566-5.727,4.28-7.692l-4.28,1.548l-4.279-1.548
				C142.435,121.632,144.053,124.803,145,127.359z"/>
		</g>
		<g>
			<path fill="#4D4D4D" d="M145,45.859c0.948,2.556,2.566,5.727,4.28,7.692L145,52.003l-4.279,1.548
				C142.435,51.585,144.053,48.415,145,45.859z"/>
		</g>
	</g>
</g>
<text transform="matrix(0.9409 0.0087 -0.0093 1 149.1118 85.6265)"><tspan x="0" y="0" fill="#4D4D4D" font-family="'TimesNewRomanPS-ItalicMT'" font-size="15.7569">l=</tspan><tspan x="15.01" y="0" fill="#4D4D4D" font-family="'TimesNewRomanPSMT'" font-size="14">V</tspan><tspan x="25.121" y="0" fill="#4D4D4D" font-family="'TimesNewRomanPS-BoldMT'" font-size="14">/</tspan><tspan x="29.01" y="0" fill="#4D4D4D" font-family="'TimesNewRomanPSMT'" font-size="14">A</tspan></text>
<text transform="matrix(0.583 0 0 0.583 96.166 6.8389)" font-family="'CourierNewPS-BoldMT'" font-size="14">top</text>
<text transform="matrix(1 0 0 1 32.7495 154.5093)" font-family="'CourierNewPS-BoldMT'" font-size="22">I</text>
<text transform="matrix(0.583 0 0 0.583 45.9517 161.8354)" font-family="'CourierNewPS-BoldMT'" font-size="22">ex</text>
<text transform="matrix(1 0 0 1 84.2627 155.1753)" font-family="'CourierNewPS-BoldMT'" font-size="22">I</text>
<text transform="matrix(0.583 0 0 0.583 97.4648 162.5015)" font-family="'CourierNewPS-BoldMT'" font-size="22">em</text>
<text transform="matrix(0.583 0 0 0.583 45.9165 143.8394)" font-family="'CourierNewPS-BoldMT'" font-size="14">bottom</text>
<text transform="matrix(0.583 0 0 0.583 98.2495 143.8394)" font-family="'CourierNewPS-BoldMT'" font-size="14">bottom</text>
<text transform="matrix(0.583 0 0 0.583 16 179.8394)" font-family="'Helvetica-Bold'" font-size="12">ABSORBANCE</text>
<text transform="matrix(0.583 0 0 0.583 84.2627 179.8394)" font-family="'Helvetica-Bold'" font-size="12">FLUORESCENCE</text>
</svg>
