<?xml version="1.0" encoding="utf-8"?>
<!-- Generator: Adobe Illustrator 19.2.1, SVG Export Plug-In . SVG Version: 6.00 Build 0)  -->
<svg version="1.1" id="Слой_1" xmlns="http://www.w3.org/2000/svg" xmlns:xlink="http://www.w3.org/1999/xlink" x="0px" y="0px"
	 viewBox="0 0 879.3 370.7" style="enable-background:new 0 0 879.3 370.7;" xml:space="preserve">
<g>
	<polygon points="113.4,104 113.4,104 114.5,103.3 115.7,104 115.7,104 163.2,131.5 163.2,132.8 163.2,167.2 165.6,167.2 
		165.6,132.8 165.6,130.8 165.6,130.1 163.3,128.7 163.3,128.7 115.1,100.9 115.1,100.9 114.5,100.6 113.9,100.9 113.9,100.9 
		80.6,120.2 81.8,122.3 	"/>
	<polygon points="115.7,215.1 115.7,215.1 114.5,215.8 113.4,215.1 113.4,215.1 65.9,187.7 65.9,186.4 65.9,151 63.5,151 
		63.5,186.4 63.5,188.4 63.5,189 65.8,190.4 65.8,190.4 113.9,218.2 113.9,218.2 114.5,218.5 115.1,218.2 115.1,218.2 148.5,198.9 
		147.3,196.8 	"/>
	<rect x="30.3" y="92.3" transform="matrix(0.5004 -0.8658 0.8658 0.5004 -80.9075 82.9894)" width="2.4" height="38.5"/>
	<rect x="311" y="192.6" transform="matrix(0.8658 -0.5004 0.5004 0.8658 -52.1671 193.0586)" width="45.6" height="2.4"/>
	<rect x="332.6" y="102.5" transform="matrix(0.5004 -0.8658 0.8658 0.5004 58.2624 351.6406)" width="2.4" height="45.6"/>
	<rect x="273.3" y="136.8" width="2.4" height="45.6"/>
	<path d="M363.9,129.4l-47.5-27.4l0,0l-1.7-1l0,0l0,0l-0.6-0.3l-0.6,0.3l0,0l-49.9,28.8l-0.6,0.3v0.7v2v54.9l-47.6,27.5l0,0
		l-1.1,0.6l-1.1-0.6l0,0l-31.6-18.3l-1.2,2.1l33.4,19.3l0,0l0.6,0.3l0.6-0.3l0,0l49.3-28.5l48.7,28.1v55.7h-42.3v2.4H312l-16,27.7
		l2.1,1.2l16.4-28.5l34.2,19.8l1.2-2.1l-34.7-20v-56.2l47.6-27.5l0,0l2.3-1.3v-0.7v-2v-54.9l32.8-18.9l-1.2-2.1L363.9,129.4z
		 M362.7,187.7l-48.7,28.1l-48.7-28.1v-54.9v-1.3l1.2-0.7l0,0l46.4-26.8l0,0l1.1-0.7l48.7,28.1v54.9V187.7z"/>
	<rect x="560.4" y="106.2" transform="matrix(0.8658 -0.5004 0.5004 0.8658 24.5501 306.2884)" width="45.6" height="2.4"/>
	<rect x="582.1" y="16.1" transform="matrix(0.5004 -0.8658 0.8658 0.5004 257.6868 524.4358)" width="2.4" height="45.6"/>
	<rect x="522.8" y="50.4" width="2.4" height="45.6"/>
	<rect x="681.8" y="125.3" transform="matrix(0.5 -0.866 0.866 0.5 208.0062 668.5306)" width="2.4" height="57.6"/>
	<rect x="692.2" y="107.4" transform="matrix(0.4997 -0.8662 0.8662 0.4997 228.8998 668.7222)" width="2.4" height="57.6"/>
	<path d="M765.6,224.6l2.4-0.3l-3.7-35.3l50-22.3l0,0l1-0.5l22.7,25.2l1.8-1.6l-22-24.4l0,0l-1.3-1.4l0,0l0,0l-0.6-0.7l-0.8,0.4
		l-52,23.2l-49.4-28.5l-49.9-28.8l-49.3-28.5V45.1l49.3-28.5l-1.2-2.1L613.4,43l-49.2-28.4l-0.7-0.4l-2.4,1.3l0,0l-46.4,26.8l0,0
		l-2.3,1.3v0.7v2v54.9l-47.6,27.5l0,0l-1.1,0.7l-32.8-18.9l-1.2,2.1l27.6,15.9v38.5h2.4v-37.1l1.7,1l0,0l2.4,1.3l0.6-0.4l3.3-1.9
		v37.1h2.4v-38.4l43.5-25.1l47.5,27.4l0,0l2.4,1.3l0.6-0.4l49.3-28.4l49.3,28.5l49.9,28.8l49.3,28.5L765.6,224.6z M514.8,45.1
		l48.7-28.1l1.1,0.7l0,0l47.6,27.5v56.2l-47.6,27.5l0,0l-1.1,0.7l-48.7-28.1V46.4V45.1z"/>
	<rect x="812.1" y="233.4" transform="matrix(0.5005 -0.8657 0.8657 0.5005 209.8248 832.8447)" width="29.2" height="2.4"/>
	<rect x="770.7" y="184.9" transform="matrix(0.9135 -0.4068 0.4068 0.9135 -7.087 338.9001)" width="45.6" height="2.4"/>
	<rect x="743.7" y="265.9" transform="matrix(0.6695 -0.7428 0.7428 0.6695 49.408 645.1686)" width="12" height="2.4"/>
	<rect x="750.4" y="304.4" transform="matrix(0.951 -0.3092 0.3092 0.951 -62.0338 248.0374)" width="2.4" height="30.7"/>
	<rect x="793.4" y="325.7" transform="matrix(0.6689 -0.7434 0.7434 0.6689 27.2693 714.976)" width="45.6" height="2.4"/>
	<polygon points="75.6,144.6 75.6,116 72,116 72,138.3 72,138.3 57.6,116 53.7,116 53.7,144.6 57.3,144.6 57.3,122.2 57.3,122.2 
		71.7,144.6 	"/>
	<polygon points="171.8,195.9 171.7,195.9 157.3,173.6 153.5,173.6 153.5,202.2 157.1,202.2 157.1,179.8 157.1,179.8 171.5,202.2 
		175.4,202.2 175.4,173.6 171.8,173.6 	"/>
	<polygon points="276.2,338.5 280,338.5 280,325.5 292.9,325.5 292.9,322.1 280,322.1 280,313.2 294.3,313.2 294.3,309.8 
		276.2,309.8 	"/>
	<polygon points="247.4,288.6 251.2,288.6 251.2,275.6 264.1,275.6 264.1,272.2 251.2,272.2 251.2,263.4 265.5,263.4 265.5,260 
		247.4,260 	"/>
	<polygon points="354.9,317.4 358.7,317.4 358.7,304.4 371.5,304.4 371.5,301 358.7,301 358.7,292.2 373,292.2 373,288.8 
		354.9,288.8 	"/>
	<polygon points="421.2,109.5 421.1,109.5 406.8,87.2 402.9,87.2 402.9,115.8 406.5,115.8 406.5,93.4 406.5,93.4 420.9,115.8 
		424.8,115.8 424.8,87.2 421.2,87.2 	"/>
	<polygon points="406.8,69.7 420.9,69.7 420.9,83.2 424.7,83.2 424.7,54.5 420.9,54.5 420.9,66.3 406.8,66.3 406.8,54.5 403,54.5 
		403,83.2 406.8,83.2 	"/>
	<path d="M470.8,175.1c-3.1-1.8-7-1.8-7-1.8c-3.9,0-7,1.8-7,1.8c-3.1,1.8-4.9,5.2-4.9,5.2c-1.8,3.4-1.8,7.8-1.8,7.8
		c0,4.3,1.8,7.7,1.8,7.7c1.8,3.4,4.9,5.2,4.9,5.2c3.1,1.8,7,1.8,7,1.8c3.9,0,7-1.8,7-1.8c3.1-1.8,4.9-5.2,4.9-5.2
		c1.8-3.4,1.8-7.8,1.8-7.8c0-4.5-1.8-7.8-1.8-7.8C473.9,177,470.8,175.1,470.8,175.1z M472.3,194.4c-1.3,2.6-3.5,4-3.5,4
		c-2.2,1.4-5.1,1.4-5.1,1.4c-2.8,0-5-1.4-5-1.4c-2.2-1.4-3.5-4-3.5-4c-1.2-2.6-1.2-6.1-1.2-6.1c0-3.6,1.2-6.3,1.2-6.3
		c1.2-2.6,3.4-4,3.4-4c2.2-1.4,5.1-1.4,5.1-1.4c2.9,0,5.1,1.4,5.1,1.4c2.2,1.4,3.4,4,3.4,4c1.2,2.6,1.2,6.2,1.2,6.2
		C473.5,191.8,472.3,194.4,472.3,194.4z"/>
	<polygon points="776.3,253.2 762,230.8 758.1,230.8 758.1,259.5 761.7,259.5 761.7,237.1 761.7,237.1 776.1,259.5 780,259.5 
		780,230.8 776.4,230.8 776.4,253.2 	"/>
	<polygon points="861.6,192.9 861.6,215.3 861.5,215.3 847.1,192.9 843.2,192.9 843.2,221.6 846.8,221.6 846.8,199.2 846.9,199.2 
		861.3,221.6 865.1,221.6 865.1,192.9 	"/>
	<polygon points="741.5,302.3 741.5,273.6 737.9,273.6 737.9,296 737.8,296 723.4,273.6 719.5,273.6 719.5,302.3 723.1,302.3 
		723.1,279.9 723.2,279.9 737.6,302.3 	"/>
	<polygon points="844.3,312 844.3,312 844.3,312 843.7,310.1 843.7,310.1 826.7,257.8 844,227.7 841.9,226.5 824.8,256.3 
		786.5,248.1 786,250.5 824.4,258.7 841.8,312.1 804.2,353.9 750.5,342.5 750.5,342.5 749.2,342.2 748.8,341 748.8,341 738.1,308 
		735.8,308.7 747.2,343.6 747.2,343.6 747.4,344.3 748,344.4 748,344.4 802.5,356 802.4,356 804.3,356.4 804.4,356.4 804.4,356.4 
		805,356.5 805.5,356 805.5,356 805.5,356 806.9,354.5 806.8,354.5 842.7,314.7 842.7,314.7 844,313.3 844.1,313.2 844.1,313.2 
		844.5,312.7 	"/>
</g>
</svg>
