<?xml version="1.0" encoding="UTF-8"?>
<svg width="566.4pt" version="1.1" xmlns="http://www.w3.org/2000/svg" height="436.08pt" viewBox="0 0 566.4 436.08" xmlns:xlink="http://www.w3.org/1999/xlink">
 <defs>
  <clipPath id="Clip0">
   <path d="M0 0 L558.771 0 L558.771 424.433 L0 424.433 L0 0 Z" transform="translate(0.600155, 0.600429)"/>
  </clipPath>
 </defs>
 <g id="Background">
  <g id="Group1" clip-path="url(#Clip0)">
   <path style="fill:#000000; fill-rule:evenodd;stroke:none;" d="M0 16.3288 C0 11.2216 1.37105 7.22341 4.11315 4.33405 C6.85525 1.44468 10.3948 0 14.7318 0 C17.5718 0 20.132 0.678616 22.4125 2.03585 C24.6929 3.39308 26.4312 5.28551 27.6274 7.71313 C28.8235 10.1408 29.4216 12.8937 29.4216 15.972 C29.4216 19.0922 28.792 21.8836 27.5329 24.3462 C26.2738 26.8088 24.49 28.6733 22.1816 29.9395 C19.8732 31.2058 17.383 31.839 14.7108 31.839 C11.8148 31.839 9.2266 31.1394 6.94619 29.7402 C4.66577 28.3409 2.93796 26.431 1.76278 24.0104 C0.587593 21.5898 0 19.0292 0 16.3288 Z M4.19709 16.3917 C4.19709 20.0996 5.1939 23.0205 7.18752 25.1543 C9.18114 27.288 11.6819 28.3549 14.6898 28.3549 C17.7537 28.3549 20.2754 27.2776 22.2551 25.1228 C24.2347 22.968 25.2245 19.9107 25.2245 15.951 C25.2245 13.4464 24.8013 11.2601 23.9549 9.39218 C23.1085 7.52424 21.8703 6.07606 20.2405 5.04764 C18.6106 4.01922 16.7814 3.50501 14.7528 3.50501 C11.8708 3.50501 9.39099 4.49495 7.31343 6.47483 C5.23587 8.45471 4.19709 11.7603 4.19709 16.3917 Z" transform="translate(259.981, 204.976)"/>
   <path style="fill:#000000; fill-rule:evenodd;stroke:none;" d="M0 16.3288 C0 11.2216 1.37105 7.22341 4.11315 4.33405 C6.85525 1.44468 10.3948 0 14.7318 0 C17.5718 0 20.132 0.678616 22.4125 2.03585 C24.6929 3.39308 26.4312 5.28551 27.6274 7.71313 C28.8235 10.1408 29.4216 12.8937 29.4216 15.972 C29.4216 19.0922 28.792 21.8836 27.5329 24.3462 C26.2738 26.8088 24.49 28.6733 22.1816 29.9395 C19.8732 31.2058 17.383 31.839 14.7108 31.839 C11.8148 31.839 9.2266 31.1394 6.94619 29.7402 C4.66577 28.3409 2.93796 26.431 1.76278 24.0104 C0.587593 21.5898 0 19.0292 0 16.3288 Z M4.19709 16.3917 C4.19709 20.0996 5.1939 23.0205 7.18752 25.1543 C9.18114 27.288 11.6819 28.3549 14.6898 28.3549 C17.7537 28.3549 20.2754 27.2776 22.2551 25.1228 C24.2347 22.968 25.2245 19.9107 25.2245 15.951 C25.2245 13.4464 24.8013 11.2601 23.9549 9.39218 C23.1085 7.52424 21.8703 6.07606 20.2405 5.04764 C18.6106 4.01922 16.7814 3.50501 14.7528 3.50501 C11.8708 3.50501 9.39099 4.49495 7.31343 6.47483 C5.23587 8.45471 4.19709 11.7603 4.19709 16.3917 Z" transform="translate(259.981, 79.1465)"/>
   <path style="fill:#000000; fill-rule:evenodd;stroke:none;" d="M0 30.7686 L0 0 L4.17611 0 L20.3349 24.1573 L20.3349 0 L24.2382 0 L24.2382 30.7686 L20.0621 30.7686 L3.90329 6.59027 L3.90329 30.7686 L0 30.7686 Z" transform="translate(44.8451, 16.7776)"/>
   <path style="fill:#000000; fill-rule:evenodd;stroke:none;" d="M0 30.7686 L0 0 L4.17611 0 L20.3349 24.1573 L20.3349 0 L24.2382 0 L24.2382 30.7686 L20.0621 30.7686 L3.90329 6.59027 L3.90329 30.7686 L0 30.7686 Z" transform="translate(480.63, 79.6922)"/>
   <path style="fill:#000000; fill-rule:evenodd;stroke:none;" d="M0 30.7686 L0 0 L4.17611 0 L20.3349 24.1573 L20.3349 0 L24.2382 0 L24.2382 30.7686 L20.0621 30.7686 L3.90329 6.59027 L3.90329 30.7686 L0 30.7686 Z" transform="translate(535.133, 174.064)"/>
   <path style="fill:#000000; fill-rule:evenodd;stroke:none;" d="M0 30.7686 L0 0 L4.17611 0 L20.3349 24.1573 L20.3349 0 L24.2382 0 L24.2382 30.7686 L20.0621 30.7686 L3.90329 6.59027 L3.90329 30.7686 L0 30.7686 Z" transform="translate(480.63, 268.436)"/>
   <path style="fill:#000000; fill-rule:evenodd;stroke:none;" d="M0 30.7686 L0 0 L4.07118 0 L4.07118 12.6348 L20.0621 12.6348 L20.0621 0 L24.1333 0 L24.1333 30.7686 L20.0621 30.7686 L20.0621 16.2658 L4.07118 16.2658 L4.07118 30.7686 L0 30.7686 Z" transform="translate(512.251, 268.436)"/>
   <path style="fill:#000000; fill-rule:evenodd;stroke:none;" d="M0 30.7686 L0 0 L11.542 0 C13.8924 0 15.7776 0.311324 17.1976 0.933971 C18.6176 1.55662 19.7298 2.51508 20.5343 3.80934 C21.3387 5.10361 21.7409 6.45734 21.7409 7.87054 C21.7409 9.1858 21.3842 10.4241 20.6707 11.5854 C19.9572 12.7468 18.8799 13.6842 17.4389 14.3978 C19.2996 14.9435 20.7301 15.874 21.7304 17.1893 C22.7307 18.5045 23.2309 20.0576 23.2309 21.8486 C23.2309 23.2898 22.9266 24.6296 22.318 25.8678 C21.7095 27.1061 20.9575 28.0611 20.0621 28.7327 C19.1667 29.4043 18.044 29.9116 16.6939 30.2544 C15.3439 30.5972 13.6895 30.7686 11.7309 30.7686 L0 30.7686 Z M4.07118 12.9287 L10.7236 12.9287 C12.5283 12.9287 13.8224 12.8097 14.6059 12.5719 C15.6412 12.2641 16.4211 11.7533 16.9458 11.0397 C17.4704 10.3262 17.7327 9.43066 17.7327 8.35327 C17.7327 7.33185 17.4879 6.43286 16.9982 5.6563 C16.5086 4.87974 15.809 4.34804 14.8997 4.0612 C13.9903 3.77436 12.4304 3.63094 10.2199 3.63094 L4.07118 3.63094 L4.07118 12.9287 Z M4.07118 27.1376 L11.7309 27.1376 C13.046 27.1376 13.9693 27.0887 14.5009 26.9907 C15.4383 26.8228 16.2218 26.543 16.8513 26.1512 C17.4809 25.7594 17.9985 25.1892 18.4042 24.4407 C18.81 23.6921 19.0128 22.8281 19.0128 21.8486 C19.0128 20.7013 18.719 19.7043 18.1314 18.8578 C17.5438 18.0113 16.7289 17.4166 15.6866 17.0738 C14.6443 16.731 13.1439 16.5596 11.1852 16.5596 L4.07118 16.5596 L4.07118 27.1376 Z" transform="translate(263.692, 394.265)"/>
   <path style="fill:#000000; fill-rule:evenodd;stroke:none;" d="M0 22.7931 L0 0.503715 L3.39964 0.503715 L3.39964 3.8828 C4.26704 2.3017 5.06799 1.25929 5.80248 0.755572 C6.53697 0.251857 7.34491 0 8.2263 0 C9.49942 0 10.7935 0.40577 12.1086 1.21731 L10.8075 4.72233 C9.88415 4.17663 8.96079 3.90379 8.03743 3.90379 C7.212 3.90379 6.47052 4.15215 5.81297 4.64887 C5.15543 5.14559 4.68675 5.8347 4.40695 6.7162 C3.98724 8.05944 3.77738 9.5286 3.77738 11.1237 L3.77738 22.7931 L0 22.7931 Z" transform="translate(291.874, 402.241)"/>
   <path style="fill:#000000; fill-rule:evenodd;stroke:none;" d="M0 30.7686 L0 0 L20.7546 0 L20.7546 3.63094 L4.07118 3.63094 L4.07118 13.1595 L18.5092 13.1595 L18.5092 16.7905 L4.07118 16.7905 L4.07118 30.7686 L0 30.7686 Z" transform="translate(482.802, 394.265)"/>
   <path style="fill:none;stroke:#000000; stroke-width:3.12152; stroke-linecap:round; stroke-linejoin:bevel; stroke-dasharray:none;" d="M0 40.3422 L0 0 " transform="translate(274.436, 244.935)"/>
   <path style="fill:none;stroke:#000000; stroke-width:3.12152; stroke-linecap:round; stroke-linejoin:bevel; stroke-dasharray:none;" d="M0 18.7303 L32.4137 0 " transform="translate(296.526, 190.905)"/>
   <path style="fill:none;stroke:#000000; stroke-width:3.12152; stroke-linecap:round; stroke-linejoin:bevel; stroke-dasharray:none;" d="M0 62.9146 L0 0 " transform="translate(328.939, 127.99)"/>
   <path style="fill:none;stroke:#000000; stroke-width:3.12152; stroke-linecap:round; stroke-linejoin:bevel; stroke-dasharray:none;" d="M0 53.3093 L0 0 " transform="translate(340.464, 132.793)"/>
   <path style="fill:none;stroke:#000000; stroke-width:3.12152; stroke-linecap:round; stroke-linejoin:bevel; stroke-dasharray:none;" d="M32.4137 18.7303 L0 0 " transform="translate(296.526, 109.26)"/>
   <path style="fill:none;stroke:#000000; stroke-width:3.12152; stroke-linecap:round; stroke-linejoin:bevel; stroke-dasharray:none;" d="M32.4137 0 L0 18.7303 " transform="translate(219.933, 109.26)"/>
   <path style="fill:none;stroke:#000000; stroke-width:3.12152; stroke-linecap:round; stroke-linejoin:bevel; stroke-dasharray:none;" d="M54.5031 31.4573 L0 0 " transform="translate(165.43, 96.5331)"/>
   <path style="fill:none;stroke:#000000; stroke-width:3.12152; stroke-linecap:round; stroke-linejoin:bevel; stroke-dasharray:none;" d="M54.5031 0 L0 31.4573 " transform="translate(110.927, 96.5331)"/>
   <path style="fill:none;stroke:#000000; stroke-width:3.12152; stroke-linecap:round; stroke-linejoin:bevel; stroke-dasharray:none;" d="M54.5031 31.4573 L0 0 " transform="translate(56.4239, 96.5331)"/>
   <path style="fill:none;stroke:#000000; stroke-width:3.12152; stroke-linecap:round; stroke-linejoin:bevel; stroke-dasharray:none;" d="M0 40.3422 L0 0 " transform="translate(56.4239, 56.1909)"/>
   <path style="fill:none;stroke:#000000; stroke-width:3.12152; stroke-linecap:round; stroke-linejoin:bevel; stroke-dasharray:none;" d="M33.8543 19.6908 L0 0 " transform="translate(2.16092, 2.16119)"/>
   <path style="fill:none;stroke:#000000; stroke-width:3.12152; stroke-linecap:round; stroke-linejoin:bevel; stroke-dasharray:none;" d="M0 19.6908 L33.8543 0 " transform="translate(77.0727, 2.16119)"/>
   <path style="fill:none;stroke:#000000; stroke-width:3.12152; stroke-linecap:round; stroke-linejoin:bevel; stroke-dasharray:none;" d="M0 0 L54.5031 31.4573 " transform="translate(110.927, 2.16119)"/>
   <path style="fill:none;stroke:#000000; stroke-width:3.12152; stroke-linecap:round; stroke-linejoin:bevel; stroke-dasharray:none;" d="M0 62.9146 L0 0 " transform="translate(165.43, 33.6185)"/>
   <path style="fill:none;stroke:#000000; stroke-width:3.12152; stroke-linecap:round; stroke-linejoin:bevel; stroke-dasharray:none;" d="M0 31.4573 L54.5031 0 " transform="translate(328.939, 96.5331)"/>
   <path style="fill:none;stroke:#000000; stroke-width:3.12152; stroke-linecap:round; stroke-linejoin:bevel; stroke-dasharray:none;" d="M0 0 L54.5031 31.4573 " transform="translate(383.442, 96.5331)"/>
   <path style="fill:none;stroke:#000000; stroke-width:3.12152; stroke-linecap:round; stroke-linejoin:bevel; stroke-dasharray:none;" d="M0 0 L46.3396 26.6547 " transform="translate(381.762, 109.02)"/>
   <path style="fill:none;stroke:#000000; stroke-width:3.12152; stroke-linecap:round; stroke-linejoin:bevel; stroke-dasharray:none;" d="M0 19.4507 L33.8543 0 " transform="translate(437.946, 108.54)"/>
   <path style="fill:none;stroke:#000000; stroke-width:3.12152; stroke-linecap:round; stroke-linejoin:bevel; stroke-dasharray:none;" d="M0 0 L34.0944 19.6908 " transform="translate(512.857, 108.3)"/>
   <path style="fill:none;stroke:#000000; stroke-width:3.12152; stroke-linecap:round; stroke-linejoin:bevel; stroke-dasharray:none;" d="M0 0 L28.332 16.5691 " transform="translate(508.535, 119.106)"/>
   <path style="fill:none;stroke:#000000; stroke-width:3.12152; stroke-linecap:round; stroke-linejoin:bevel; stroke-dasharray:none;" d="M0 0 L0 40.5823 " transform="translate(546.952, 127.99)"/>
   <path style="fill:none;stroke:#000000; stroke-width:3.12152; stroke-linecap:round; stroke-linejoin:bevel; stroke-dasharray:none;" d="M33.8543 0 L0 19.4507 " transform="translate(492.449, 202.912)"/>
   <path style="fill:none;stroke:#000000; stroke-width:3.12152; stroke-linecap:round; stroke-linejoin:bevel; stroke-dasharray:none;" d="M35.5351 0 L0 20.4112 " transform="translate(490.768, 189.464)"/>
   <path style="fill:none;stroke:#000000; stroke-width:3.12152; stroke-linecap:round; stroke-linejoin:bevel; stroke-dasharray:none;" d="M0 0 L0 40.5823 " transform="translate(492.449, 222.362)"/>
   <path style="fill:none;stroke:#000000; stroke-width:3.12152; stroke-linecap:round; stroke-linejoin:bevel; stroke-dasharray:none;" d="M33.8543 0 L0 19.4507 " transform="translate(437.946, 297.284)"/>
   <path style="fill:none;stroke:#000000; stroke-width:3.12152; stroke-linecap:round; stroke-linejoin:bevel; stroke-dasharray:none;" d="M54.5031 31.4573 L0 0 " transform="translate(383.442, 285.277)"/>
   <path style="fill:none;stroke:#000000; stroke-width:3.12152; stroke-linecap:round; stroke-linejoin:bevel; stroke-dasharray:none;" d="M46.3396 26.6547 L0 0 " transform="translate(381.762, 297.764)"/>
   <path style="fill:none;stroke:#000000; stroke-width:3.12152; stroke-linecap:round; stroke-linejoin:bevel; stroke-dasharray:none;" d="M54.5031 0 L0 31.4573 " transform="translate(328.939, 285.277)"/>
   <path style="fill:none;stroke:#000000; stroke-width:3.12152; stroke-linecap:round; stroke-linejoin:bevel; stroke-dasharray:none;" d="M0 0 L0 62.9146 " transform="translate(328.939, 316.734)"/>
   <path style="fill:none;stroke:#000000; stroke-width:3.12152; stroke-linecap:round; stroke-linejoin:bevel; stroke-dasharray:none;" d="M0 0 L0 53.3093 " transform="translate(340.464, 321.537)"/>
   <path style="fill:none;stroke:#000000; stroke-width:3.12152; stroke-linecap:round; stroke-linejoin:bevel; stroke-dasharray:none;" d="M20.4086 0 L0 11.7665 " transform="translate(308.531, 379.649)"/>
   <path style="fill:none;stroke:#000000; stroke-width:3.12152; stroke-linecap:round; stroke-linejoin:bevel; stroke-dasharray:none;" d="M0 0 L54.5031 31.4573 " transform="translate(328.939, 379.649)"/>
   <path style="fill:none;stroke:#000000; stroke-width:3.12152; stroke-linecap:round; stroke-linejoin:bevel; stroke-dasharray:none;" d="M0 31.4573 L54.5031 0 " transform="translate(383.442, 379.649)"/>
   <path style="fill:none;stroke:#000000; stroke-width:3.12152; stroke-linecap:round; stroke-linejoin:bevel; stroke-dasharray:none;" d="M0 26.6547 L46.3396 0 " transform="translate(381.762, 372.205)"/>
   <path style="fill:none;stroke:#000000; stroke-width:3.12152; stroke-linecap:round; stroke-linejoin:bevel; stroke-dasharray:none;" d="M0 0 L0 62.9146 " transform="translate(437.946, 316.734)"/>
   <path style="fill:none;stroke:#000000; stroke-width:3.12152; stroke-linecap:round; stroke-linejoin:bevel; stroke-dasharray:none;" d="M0 0 L35.7752 20.6514 " transform="translate(437.946, 379.649)"/>
   <path style="fill:none;stroke:#000000; stroke-width:3.12152; stroke-linecap:round; stroke-linejoin:bevel; stroke-dasharray:none;" d="M54.5031 31.4573 L0 0 " transform="translate(437.946, 190.905)"/>
   <path style="fill:none;stroke:#000000; stroke-width:3.12152; stroke-linecap:round; stroke-linejoin:bevel; stroke-dasharray:none;" d="M0 0 L0 62.9146 " transform="translate(437.946, 127.99)"/>
   <path style="fill:none;stroke:#000000; stroke-width:3.12152; stroke-linecap:round; stroke-linejoin:bevel; stroke-dasharray:none;" d="M54.5031 0 L0 31.4573 " transform="translate(383.442, 190.905)"/>
   <path style="fill:none;stroke:#000000; stroke-width:3.12152; stroke-linecap:round; stroke-linejoin:bevel; stroke-dasharray:none;" d="M46.3396 0 L0 26.6547 " transform="translate(381.762, 183.221)"/>
   <path style="fill:none;stroke:#000000; stroke-width:3.12152; stroke-linecap:round; stroke-linejoin:bevel; stroke-dasharray:none;" d="M0 0 L54.5031 31.4573 " transform="translate(328.939, 190.905)"/>
  </g>
 </g>
</svg>
