<?xml version="1.0" encoding="UTF-8"?>
<svg width="572.4pt" version="1.1" xmlns="http://www.w3.org/2000/svg" height="285.12pt" viewBox="0 0 572.4 285.12" xmlns:xlink="http://www.w3.org/1999/xlink">
 <defs>
  <clipPath id="Clip0">
   <path d="M0 0 L571.44 0 L571.44 279.758 L0 279.758 L0 0 Z" transform="translate(0.359923, 4.761)"/>
  </clipPath>
 </defs>
 <g id="Background">
  <g id="Group1" clip-path="url(#Clip0)">
   <path style="fill:#000000; fill-rule:evenodd;stroke:none;" d="M0 10.6761 C0 7.33696 0.896157 4.72282 2.68847 2.83369 C4.48078 0.944565 6.79433 0 9.62912 0 C11.4854 0 13.1589 0.443694 14.6494 1.33108 C16.14 2.21847 17.2762 3.45578 18.058 5.04301 C18.8399 6.63025 19.2308 8.43018 19.2308 10.4428 C19.2308 12.4829 18.8193 14.308 17.9963 15.9181 C17.1733 17.5282 16.0074 18.7472 14.4985 19.5751 C12.9897 20.4031 11.362 20.817 9.6154 20.817 C7.7225 20.817 6.03077 20.3596 4.54022 19.4448 C3.04968 18.5299 1.92034 17.2812 1.1522 15.6985 C0.384067 14.1159 0 12.4417 0 10.6761 Z M2.74334 10.7173 C2.74334 13.1416 3.39488 15.0513 4.69797 16.4464 C6.00105 17.8415 7.63562 18.5391 9.60168 18.5391 C11.6043 18.5391 13.2526 17.8347 14.5465 16.4258 C15.8405 15.017 16.4875 13.0181 16.4875 10.4291 C16.4875 8.79154 16.2108 7.36212 15.6576 6.14081 C15.1044 4.91951 14.2951 3.97266 13.2297 3.30026 C12.1644 2.62786 10.9688 2.29166 9.64283 2.29166 C7.75907 2.29166 6.13822 2.9389 4.78027 4.23339 C3.42231 5.52788 2.74334 7.68917 2.74334 10.7173 Z" transform="translate(27.3001, 86.8964)"/>
   <path style="fill:#000000; fill-rule:evenodd;stroke:none;" d="M0 20.1172 L0 0 L2.72962 0 L13.2915 15.7946 L13.2915 0 L15.8428 0 L15.8428 20.1172 L13.1132 20.1172 L2.5513 4.30886 L2.5513 20.1172 L0 20.1172 Z" transform="translate(171.422, 87.2532)"/>
   <path style="fill:#000000; fill-rule:evenodd;stroke:none;" d="M0 20.1172 L0 0 L2.66104 0 L2.66104 8.26094 L13.1132 8.26094 L13.1132 0 L15.7742 0 L15.7742 20.1172 L13.1132 20.1172 L13.1132 10.6349 L2.66104 10.6349 L2.66104 20.1172 L0 20.1172 Z" transform="translate(192.18, 87.2532)"/>
   <path style="fill:#000000; fill-rule:evenodd;stroke:none;" d="M0 10.6761 C0 7.33696 0.896157 4.72282 2.68847 2.83369 C4.48078 0.944565 6.79433 0 9.62912 0 C11.4854 0 13.1589 0.443694 14.6494 1.33108 C16.14 2.21847 17.2762 3.45578 18.058 5.04301 C18.8399 6.63025 19.2308 8.43018 19.2308 10.4428 C19.2308 12.4829 18.8193 14.308 17.9963 15.9181 C17.1733 17.5282 16.0074 18.7472 14.4985 19.5751 C12.9897 20.4031 11.362 20.817 9.6154 20.817 C7.7225 20.817 6.03077 20.3596 4.54022 19.4448 C3.04968 18.5299 1.92034 17.2812 1.1522 15.6985 C0.384067 14.1159 0 12.4417 0 10.6761 Z M2.74334 10.7173 C2.74334 13.1416 3.39488 15.0513 4.69797 16.4464 C6.00105 17.8415 7.63562 18.5391 9.60168 18.5391 C11.6043 18.5391 13.2526 17.8347 14.5465 16.4258 C15.8405 15.017 16.4875 13.0181 16.4875 10.4291 C16.4875 8.79154 16.2108 7.36212 15.6576 6.14081 C15.1044 4.91951 14.2951 3.97266 13.2297 3.30026 C12.1644 2.62786 10.9688 2.29166 9.64283 2.29166 C7.75907 2.29166 6.13822 2.9389 4.78027 4.23339 C3.42231 5.52788 2.74334 7.68917 2.74334 10.7173 Z" transform="translate(312.059, 127.971)"/>
   <path style="fill:#000000; fill-rule:evenodd;stroke:none;" d="M0 10.6761 C0 7.33696 0.896157 4.72282 2.68847 2.83369 C4.48078 0.944565 6.79433 0 9.62912 0 C11.4854 0 13.1589 0.443694 14.6494 1.33108 C16.14 2.21847 17.2762 3.45578 18.058 5.04301 C18.8399 6.63025 19.2308 8.43018 19.2308 10.4428 C19.2308 12.4829 18.8193 14.308 17.9963 15.9181 C17.1733 17.5282 16.0074 18.7472 14.4985 19.5751 C12.9897 20.4031 11.362 20.817 9.6154 20.817 C7.7225 20.817 6.03077 20.3596 4.54022 19.4448 C3.04968 18.5299 1.92034 17.2812 1.1522 15.6985 C0.384067 14.1159 0 12.4417 0 10.6761 Z M2.74334 10.7173 C2.74334 13.1416 3.39488 15.0513 4.69797 16.4464 C6.00105 17.8415 7.63562 18.5391 9.60168 18.5391 C11.6043 18.5391 13.2526 17.8347 14.5465 16.4258 C15.8405 15.017 16.4875 13.0181 16.4875 10.4291 C16.4875 8.79154 16.2108 7.36212 15.6576 6.14081 C15.1044 4.91951 14.2951 3.97266 13.2297 3.30026 C12.1644 2.62786 10.9688 2.29166 9.64283 2.29166 C7.75907 2.29166 6.13822 2.9389 4.78027 4.23339 C3.42231 5.52788 2.74334 7.68917 2.74334 10.7173 Z" transform="translate(312.059, 210.36)"/>
   <path style="fill:#000000; fill-rule:evenodd;stroke:none;" d="M0 20.1172 L0 0 L2.72962 0 L13.2915 15.7946 L13.2915 0 L15.8428 0 L15.8428 20.1172 L13.1132 20.1172 L2.5513 4.30886 L2.5513 20.1172 L0 20.1172 Z" transform="translate(456.181, 210.717)"/>
   <path style="fill:#000000; fill-rule:evenodd;stroke:none;" d="M0 20.1172 L0 0 L2.72962 0 L13.2915 15.7946 L13.2915 0 L15.8428 0 L15.8428 20.1172 L13.1132 20.1172 L2.5513 4.30886 L2.5513 20.1172 L0 20.1172 Z" transform="translate(527.491, 251.792)"/>
   <path style="fill:#000000; fill-rule:evenodd;stroke:none;" d="M0 20.1172 L0 0 L2.72962 0 L13.2915 15.7946 L13.2915 0 L15.8428 0 L15.8428 20.1172 L13.1132 20.1172 L2.5513 4.30886 L2.5513 20.1172 L0 20.1172 Z" transform="translate(171.422, 210.717)"/>
   <path style="fill:#000000; fill-rule:evenodd;stroke:none;" d="M0 20.1172 L0 0 L2.72962 0 L13.2915 15.7946 L13.2915 0 L15.8428 0 L15.8428 20.1172 L13.1132 20.1172 L2.5513 4.30886 L2.5513 20.1172 L0 20.1172 Z" transform="translate(64.8173, 107.911)"/>
   <path style="fill:#000000; fill-rule:evenodd;stroke:none;" d="M15.1158 13.4069 L17.7768 14.0793 C17.219 16.2657 16.2154 17.933 14.766 19.0811 C13.3166 20.2292 11.5449 20.8033 9.4508 20.8033 C7.28356 20.8033 5.52097 20.3619 4.16302 19.4791 C2.80506 18.5963 1.77174 17.3178 1.06304 15.6436 C0.354348 13.9695 0 12.1718 0 10.2507 C0 8.15573 0.40007 6.32835 1.20021 4.76856 C2.00035 3.20878 3.13884 2.02407 4.61567 1.21444 C6.0925 0.404813 7.71792 0 9.49195 0 C11.5037 0 13.1955 0.512306 14.5671 1.53692 C15.9388 2.56153 16.8944 4.00239 17.4339 5.8595 L14.814 6.47701 C14.3477 5.01328 13.671 3.9475 12.784 3.27967 C11.8969 2.61185 10.7813 2.27793 9.43708 2.27793 C7.89167 2.27793 6.60001 2.64844 5.56212 3.38945 C4.52422 4.13047 3.79495 5.12535 3.37431 6.3741 C2.95366 7.62284 2.74334 8.91047 2.74334 10.237 C2.74334 11.9477 2.99252 13.4412 3.4909 14.7174 C3.98927 15.9936 4.76426 16.9473 5.81588 17.5785 C6.86749 18.2097 8.00597 18.5254 9.23133 18.5254 C10.7219 18.5254 11.9838 18.0954 13.0171 17.2354 C14.0505 16.3755 14.75 15.0993 15.1158 13.4069 Z" transform="translate(170.681, 4.761)"/>
   <path style="fill:#000000; fill-rule:evenodd;stroke:none;" d="M0 20.1172 L0 0 L2.469 0 L2.469 20.1172 L0 20.1172 Z" transform="translate(191.236, 5.10406)"/>
   <path style="fill:#000000; fill-rule:evenodd;stroke:none;" d="M15.1158 13.4069 L17.7768 14.0793 C17.219 16.2657 16.2154 17.933 14.766 19.0811 C13.3166 20.2292 11.5449 20.8033 9.4508 20.8033 C7.28356 20.8033 5.52097 20.3619 4.16302 19.4791 C2.80506 18.5963 1.77174 17.3178 1.06304 15.6436 C0.354348 13.9695 0 12.1718 0 10.2507 C0 8.15573 0.40007 6.32835 1.20021 4.76856 C2.00035 3.20878 3.13884 2.02407 4.61567 1.21444 C6.0925 0.404813 7.71792 0 9.49195 0 C11.5037 0 13.1955 0.512306 14.5671 1.53692 C15.9388 2.56153 16.8944 4.00239 17.4339 5.8595 L14.814 6.47701 C14.3477 5.01328 13.671 3.9475 12.784 3.27967 C11.8969 2.61185 10.7813 2.27793 9.43708 2.27793 C7.89167 2.27793 6.60001 2.64844 5.56212 3.38945 C4.52422 4.13047 3.79495 5.12535 3.37431 6.3741 C2.95366 7.62284 2.74334 8.91047 2.74334 10.237 C2.74334 11.9477 2.99252 13.4412 3.4909 14.7174 C3.98927 15.9936 4.76426 16.9473 5.81588 17.5785 C6.86749 18.2097 8.00597 18.5254 9.23133 18.5254 C10.7219 18.5254 11.9838 18.0954 13.0171 17.2354 C14.0505 16.3755 14.75 15.0993 15.1158 13.4069 Z" transform="translate(28.3016, 4.761)"/>
   <path style="fill:#000000; fill-rule:evenodd;stroke:none;" d="M0 20.1172 L0 0 L2.469 0 L2.469 20.1172 L0 20.1172 Z" transform="translate(48.8566, 5.10406)"/>
   <path style="fill:none;stroke:#000000; stroke-width:2.16136; stroke-linecap:round; stroke-linejoin:bevel; stroke-dasharray:none;" d="M0 0 L20.8888 12.2503 " transform="translate(1.4406, 77.8255)"/>
   <path style="fill:none;stroke:#000000; stroke-width:2.16136; stroke-linecap:round; stroke-linejoin:bevel; stroke-dasharray:none;" d="M0 12.2503 L21.369 0 " transform="translate(51.1414, 77.8255)"/>
   <path style="fill:none;stroke:#000000; stroke-width:2.16136; stroke-linecap:round; stroke-linejoin:bevel; stroke-dasharray:none;" d="M0 0 L35.5349 20.6574 " transform="translate(72.5104, 77.8255)"/>
   <path style="fill:none;stroke:#000000; stroke-width:2.16136; stroke-linecap:round; stroke-linejoin:bevel; stroke-dasharray:none;" d="M0 0 L30.0126 17.2946 " transform="translate(78.9931, 73.0215)"/>
   <path style="fill:none;stroke:#000000; stroke-width:2.16136; stroke-linecap:round; stroke-linejoin:bevel; stroke-dasharray:none;" d="M0 20.6574 L35.5349 0 " transform="translate(108.045, 77.8255)"/>
   <path style="fill:none;stroke:#000000; stroke-width:2.16136; stroke-linecap:round; stroke-linejoin:bevel; stroke-dasharray:none;" d="M0 0 L22.0893 12.7307 " transform="translate(143.58, 77.8255)"/>
   <path style="fill:none;stroke:#000000; stroke-width:2.16136; stroke-linecap:round; stroke-linejoin:bevel; stroke-dasharray:none;" d="M0 0 L0 26.6624 " transform="translate(179.355, 112.895)"/>
   <path style="fill:none;stroke:#000000; stroke-width:2.16136; stroke-linecap:round; stroke-linejoin:bevel; stroke-dasharray:none;" d="M0 0 L35.5349 20.4172 " transform="translate(179.355, 139.557)"/>
   <path style="fill:none;stroke:#000000; stroke-width:2.16136; stroke-linecap:round; stroke-linejoin:bevel; stroke-dasharray:none;" d="M0 0 L30.2527 17.5348 " transform="translate(178.155, 147.484)"/>
   <path style="fill:none;stroke:#000000; stroke-width:2.16136; stroke-linecap:round; stroke-linejoin:bevel; stroke-dasharray:none;" d="M0 20.4172 L35.5349 0 " transform="translate(214.89, 139.557)"/>
   <path style="fill:none;stroke:#000000; stroke-width:2.16136; stroke-linecap:round; stroke-linejoin:bevel; stroke-dasharray:none;" d="M0 0 L35.5349 20.4172 " transform="translate(250.425, 139.557)"/>
   <path style="fill:none;stroke:#000000; stroke-width:2.16136; stroke-linecap:round; stroke-linejoin:bevel; stroke-dasharray:none;" d="M0 0 L30.2527 17.5348 " transform="translate(249.465, 147.484)"/>
   <path style="fill:none;stroke:#000000; stroke-width:2.16136; stroke-linecap:round; stroke-linejoin:bevel; stroke-dasharray:none;" d="M0 12.0101 L21.1289 0 " transform="translate(285.96, 147.965)"/>
   <path style="fill:none;stroke:#000000; stroke-width:2.16136; stroke-linecap:round; stroke-linejoin:bevel; stroke-dasharray:none;" d="M0 0 L21.369 12.2503 " transform="translate(335.901, 147.724)"/>
   <path style="fill:none;stroke:#000000; stroke-width:2.16136; stroke-linecap:round; stroke-linejoin:bevel; stroke-dasharray:none;" d="M0 0 L0 41.3148 " transform="translate(285.96, 159.975)"/>
   <path style="fill:none;stroke:#000000; stroke-width:2.16136; stroke-linecap:round; stroke-linejoin:bevel; stroke-dasharray:none;" d="M0 0 L21.1289 12.0101 " transform="translate(285.96, 201.289)"/>
   <path style="fill:none;stroke:#000000; stroke-width:2.16136; stroke-linecap:round; stroke-linejoin:bevel; stroke-dasharray:none;" d="M0 12.2503 L21.369 0 " transform="translate(335.901, 201.289)"/>
   <path style="fill:none;stroke:#000000; stroke-width:2.16136; stroke-linecap:round; stroke-linejoin:bevel; stroke-dasharray:none;" d="M0 0 L35.5349 20.4172 " transform="translate(357.27, 201.289)"/>
   <path style="fill:none;stroke:#000000; stroke-width:2.16136; stroke-linecap:round; stroke-linejoin:bevel; stroke-dasharray:none;" d="M0 20.4172 L35.5349 0 " transform="translate(392.805, 201.289)"/>
   <path style="fill:none;stroke:#000000; stroke-width:2.16136; stroke-linecap:round; stroke-linejoin:bevel; stroke-dasharray:none;" d="M0 0 L22.0893 12.7307 " transform="translate(428.34, 201.289)"/>
   <path style="fill:none;stroke:#000000; stroke-width:2.16136; stroke-linecap:round; stroke-linejoin:bevel; stroke-dasharray:none;" d="M0 12.7307 L22.3294 0 " transform="translate(477.32, 201.289)"/>
   <path style="fill:none;stroke:#000000; stroke-width:2.16136; stroke-linecap:round; stroke-linejoin:bevel; stroke-dasharray:none;" d="M0 0 L35.5349 20.4172 " transform="translate(499.649, 201.289)"/>
   <path style="fill:none;stroke:#000000; stroke-width:2.16136; stroke-linecap:round; stroke-linejoin:bevel; stroke-dasharray:none;" d="M0 0 L0 26.4222 " transform="translate(535.184, 221.707)"/>
   <path style="fill:none;stroke:#000000; stroke-width:2.16136; stroke-linecap:round; stroke-linejoin:bevel; stroke-dasharray:none;" d="M0 0 L22.0893 12.7307 " transform="translate(548.63, 270.708)"/>
   <path style="fill:none;stroke:#000000; stroke-width:2.16136; stroke-linecap:round; stroke-linejoin:bevel; stroke-dasharray:none;" d="M22.0893 0 L0 12.7307 " transform="translate(499.649, 270.708)"/>
   <path style="fill:none;stroke:#000000; stroke-width:2.16136; stroke-linecap:round; stroke-linejoin:bevel; stroke-dasharray:none;" d="M35.5349 20.6574 L0 0 " transform="translate(464.115, 262.781)"/>
   <path style="fill:none;stroke:#000000; stroke-width:2.16136; stroke-linecap:round; stroke-linejoin:bevel; stroke-dasharray:none;" d="M0 0 L0 26.4222 " transform="translate(464.115, 236.359)"/>
   <path style="fill:none;stroke:#000000; stroke-width:2.16136; stroke-linecap:round; stroke-linejoin:bevel; stroke-dasharray:none;" d="M35.5349 0 L0 20.4172 " transform="translate(250.425, 201.289)"/>
   <path style="fill:none;stroke:#000000; stroke-width:2.16136; stroke-linecap:round; stroke-linejoin:bevel; stroke-dasharray:none;" d="M30.2527 0 L0 17.5348 " transform="translate(249.465, 196.245)"/>
   <path style="fill:none;stroke:#000000; stroke-width:2.16136; stroke-linecap:round; stroke-linejoin:bevel; stroke-dasharray:none;" d="M35.5349 20.4172 L0 0 " transform="translate(214.89, 201.289)"/>
   <path style="fill:none;stroke:#000000; stroke-width:2.16136; stroke-linecap:round; stroke-linejoin:bevel; stroke-dasharray:none;" d="M0 0 L0 41.3148 " transform="translate(214.89, 159.975)"/>
   <path style="fill:none;stroke:#000000; stroke-width:2.16136; stroke-linecap:round; stroke-linejoin:bevel; stroke-dasharray:none;" d="M22.3294 0 L0 12.7307 " transform="translate(192.561, 201.289)"/>
   <path style="fill:none;stroke:#000000; stroke-width:2.16136; stroke-linecap:round; stroke-linejoin:bevel; stroke-dasharray:none;" d="M18.4878 0 L0 10.8091 " transform="translate(189.92, 196.245)"/>
   <path style="fill:none;stroke:#000000; stroke-width:2.16136; stroke-linecap:round; stroke-linejoin:bevel; stroke-dasharray:none;" d="M22.0893 12.4905 L0 0 " transform="translate(143.58, 201.289)"/>
   <path style="fill:none;stroke:#000000; stroke-width:2.16136; stroke-linecap:round; stroke-linejoin:bevel; stroke-dasharray:none;" d="M0 41.3148 L0 0 " transform="translate(143.58, 159.975)"/>
   <path style="fill:none;stroke:#000000; stroke-width:2.16136; stroke-linecap:round; stroke-linejoin:bevel; stroke-dasharray:none;" d="M0 35.0695 L0 0 " transform="translate(151.023, 163.097)"/>
   <path style="fill:none;stroke:#000000; stroke-width:2.16136; stroke-linecap:round; stroke-linejoin:bevel; stroke-dasharray:none;" d="M35.775 0 L0 20.4172 " transform="translate(143.58, 139.557)"/>
   <path style="fill:none;stroke:#000000; stroke-width:2.16136; stroke-linecap:round; stroke-linejoin:bevel; stroke-dasharray:none;" d="M35.5349 20.4172 L0 0 " transform="translate(108.045, 139.557)"/>
   <path style="fill:none;stroke:#000000; stroke-width:2.16136; stroke-linecap:round; stroke-linejoin:bevel; stroke-dasharray:none;" d="M22.0893 12.7307 L0 0 " transform="translate(85.956, 126.827)"/>
   <path style="fill:none;stroke:#000000; stroke-width:2.16136; stroke-linecap:round; stroke-linejoin:bevel; stroke-dasharray:none;" d="M21.6091 12.4905 L0 0 " transform="translate(82.8347, 133.552)"/>
   <path style="fill:none;stroke:#000000; stroke-width:2.16136; stroke-linecap:round; stroke-linejoin:bevel; stroke-dasharray:none;" d="M25.9309 14.8925 L0 0 " transform="translate(85.956, 118.179)"/>
   <path style="fill:none;stroke:#000000; stroke-width:2.16136; stroke-linecap:round; stroke-linejoin:bevel; stroke-dasharray:none;" d="M0 41.0746 L0 0 " transform="translate(143.58, 36.7509)"/>
   <path style="fill:none;stroke:#000000; stroke-width:2.16136; stroke-linecap:round; stroke-linejoin:bevel; stroke-dasharray:none;" d="M0 34.8293 L0 0 " transform="translate(136.137, 39.8736)"/>
   <path style="fill:none;stroke:#000000; stroke-width:2.16136; stroke-linecap:round; stroke-linejoin:bevel; stroke-dasharray:none;" d="M0 12.7307 L22.0893 0 " transform="translate(143.58, 24.0202)"/>
   <path style="fill:none;stroke:#000000; stroke-width:2.16136; stroke-linecap:round; stroke-linejoin:bevel; stroke-dasharray:none;" d="M35.5349 20.6574 L0 0 " transform="translate(108.045, 16.0935)"/>
   <path style="fill:none;stroke:#000000; stroke-width:2.16136; stroke-linecap:round; stroke-linejoin:bevel; stroke-dasharray:none;" d="M35.5349 0 L0 20.6574 " transform="translate(72.5104, 16.0935)"/>
   <path style="fill:none;stroke:#000000; stroke-width:2.16136; stroke-linecap:round; stroke-linejoin:bevel; stroke-dasharray:none;" d="M30.0126 0 L0 17.2946 " transform="translate(78.9931, 24.2604)"/>
   <path style="fill:none;stroke:#000000; stroke-width:2.16136; stroke-linecap:round; stroke-linejoin:bevel; stroke-dasharray:none;" d="M0 41.0746 L0 0 " transform="translate(72.5104, 36.7509)"/>
   <path style="fill:none;stroke:#000000; stroke-width:2.16136; stroke-linecap:round; stroke-linejoin:bevel; stroke-dasharray:none;" d="M15.3664 8.88748 L0 0 " transform="translate(57.144, 27.8635)"/>
  </g>
 </g>
</svg>
