<?xml version="1.0" encoding="UTF-8" standalone="no"?>
<!-- Created with Inkscape (http://www.inkscape.org/) -->
<svg
   xmlns:svg="http://www.w3.org/2000/svg"
   xmlns="http://www.w3.org/2000/svg"
   version="1.0"
   width="1437.7"
   height="648.79999"
   viewBox="0 0 1437.7 648.8"
   id="svg4339">
  <defs
     id="defs4448" />
  <path
     d="M 680.79999,525.59998 L 772.40002,578.59998"
     id="line4345"
     style="font-size:60px;stroke:#000000;stroke-width:4;stroke-linecap:round;font-family:Helvetica" />
  <path
     d="M 1230.5,102.8 L 1300,62.700001"
     id="line4347"
     style="font-size:60px;stroke:#000000;stroke-width:4;stroke-linecap:round;font-family:Helvetica" />
  <path
     d="M 772.40002,367.10001 L 864,420"
     id="line4349"
     style="font-size:60px;stroke:#000000;stroke-width:4;stroke-linecap:round;font-family:Helvetica" />
  <path
     d="M 771.79999,394.5 L 840.5,434.20001"
     id="line4351"
     style="font-size:60px;stroke:#000000;stroke-width:4;stroke-linecap:round;font-family:Helvetica" />
  <path
     d="M 497.5,420 L 405.89999,367.10001"
     id="line4353"
     style="font-size:60px;stroke:#000000;stroke-width:4;stroke-linecap:round;font-family:Helvetica" />
  <path
     d="M 405.89999,367.10001 L 314.29999,420.10001"
     id="line4355"
     style="font-size:60px;stroke:#000000;stroke-width:4;stroke-linecap:round;font-family:Helvetica" />
  <path
     d="M 864,525.59998 L 772.40002,578.59998"
     id="line4357"
     style="font-size:60px;stroke:#000000;stroke-width:4;stroke-linecap:round;font-family:Helvetica" />
  <path
     d="M 840.5,511.5 L 771.79999,551.20001"
     id="line4359"
     style="font-size:60px;stroke:#000000;stroke-width:4;stroke-linecap:round;font-family:Helvetica" />
  <path
     d="M 955.59998,367.10001 L 1020,404.29999"
     id="line4361"
     style="font-size:60px;stroke:#000000;stroke-width:4;stroke-linecap:round;font-family:Helvetica" />
  <path
     d="M 951.70001,392.5 L 999.90002,420.39999"
     id="line4363"
     style="font-size:60px;stroke:#000000;stroke-width:4;stroke-linecap:round;font-family:Helvetica" />
  <path
     d="M 314.29999,420.10001 L 252,384.10001"
     id="line4365"
     style="font-size:60px;stroke:#000000;stroke-width:4;stroke-linecap:round;font-family:Helvetica" />
  <path
     d="M 1047.2,208.39999 L 1047.3,102.7"
     id="line4367"
     style="font-size:60px;stroke:#000000;stroke-width:4;stroke-linecap:round;font-family:Helvetica" />
  <path
     d="M 1071.2,195.2 L 1071.3,115.9"
     id="line4369"
     style="font-size:60px;stroke:#000000;stroke-width:4;stroke-linecap:round;font-family:Helvetica" />
  <path
     d="M 560,561.70001 L 497.5,525.59998"
     id="line4371"
     style="font-size:60px;stroke:#000000;stroke-width:4;stroke-linecap:round;font-family:Helvetica" />
  <path
     d="M 984,244.89999 L 1047.2,208.39999"
     id="line4373"
     style="font-size:60px;stroke:#000000;stroke-width:4;stroke-linecap:round;font-family:Helvetica" />
  <path
     d="M 39.299999,284 L 39.400002,367.20001"
     id="line4375"
     style="font-size:60px;stroke:#000000;stroke-width:4;stroke-linecap:round;font-family:Helvetica" />
  <path
     d="M 864,525.59998 L 928,562.59998"
     id="line4377"
     style="font-size:60px;stroke:#000000;stroke-width:4;stroke-linecap:round;font-family:Helvetica" />
  <path
     d="M 1047.3,102.7 L 1138.9,49.799999"
     id="line4379"
     style="font-size:60px;stroke:#000000;stroke-width:4;stroke-linecap:round;font-family:Helvetica" />
  <path
     d="M 39.400002,367.20001 L 131,420.10001"
     id="line4381"
     style="font-size:60px;stroke:#000000;stroke-width:4;stroke-linecap:round;font-family:Helvetica" />
  <path
     d="M 1230.5,208.39999 L 1230.5,102.8"
     id="line4383"
     style="font-size:60px;stroke:#000000;stroke-width:4;stroke-linecap:round;font-family:Helvetica" />
  <path
     d="M 1230.5,208.39999 L 1138.8,261.29999"
     id="line4385"
     style="font-size:60px;stroke:#000000;stroke-width:4;stroke-linecap:round;font-family:Helvetica" />
  <path
     d="M 1207,194.3 L 1138.3,233.89999"
     id="line4387"
     style="font-size:60px;stroke:#000000;stroke-width:4;stroke-linecap:round;font-family:Helvetica" />
  <path
     d="M 1230.5,208.39999 L 1296,246.3"
     id="line4389"
     style="font-size:60px;stroke:#000000;stroke-width:4;stroke-linecap:round;font-family:Helvetica" />
  <path
     d="M 680.79999,420 L 620,384.89999"
     id="line4391"
     style="font-size:60px;stroke:#000000;stroke-width:4;stroke-linecap:round;font-family:Helvetica" />
  <path
     d="M 955.59998,367.10001 L 955.59998,284"
     id="line4393"
     style="font-size:60px;stroke:#000000;stroke-width:4;stroke-linecap:round;font-family:Helvetica" />
  <path
     d="M 1138.8,261.29999 L 1047.2,208.39999"
     id="line4395"
     style="font-size:60px;stroke:#000000;stroke-width:4;stroke-linecap:round;font-family:Helvetica" />
  <path
     d="M 1047.2,444 L 1047.2,525.59998"
     id="line4397"
     style="font-size:60px;stroke:#000000;stroke-width:4;stroke-linecap:round;font-family:Helvetica" />
  <path
     d="M 680.79999,525.59998 L 620,560.70001"
     id="line4399"
     style="font-size:60px;stroke:#000000;stroke-width:4;stroke-linecap:round;font-family:Helvetica" />
  <path
     d="M 680.79999,420 L 680.79999,525.59998"
     id="line4401"
     style="font-size:60px;stroke:#000000;stroke-width:4;stroke-linecap:round;font-family:Helvetica" />
  <path
     d="M 704.79999,433.20001 L 704.79999,512.40002"
     id="line4403"
     style="font-size:60px;stroke:#000000;stroke-width:4;stroke-linecap:round;font-family:Helvetica" />
  <path
     d="M 1230.5,102.8 L 1138.9,49.799999"
     id="line4405"
     style="font-size:60px;stroke:#000000;stroke-width:4;stroke-linecap:round;font-family:Helvetica" />
  <path
     d="M 1207,116.9 L 1138.3,77.199997"
     id="line4407"
     style="font-size:60px;stroke:#000000;stroke-width:4;stroke-linecap:round;font-family:Helvetica" />
  <path
     d="M 680.79999,420 L 772.40002,367.10001"
     id="line4409"
     style="font-size:60px;stroke:#000000;stroke-width:4;stroke-linecap:round;font-family:Helvetica" />
  <path
     d="M 222.60001,332 L 222.5,261.39999"
     id="line4411"
     style="font-size:60px;stroke:#000000;stroke-width:4;stroke-linecap:round;font-family:Helvetica" />
  <path
     d="M 130.89999,208.5 L 68,244.8"
     id="line4413"
     style="font-size:60px;stroke:#000000;stroke-width:4;stroke-linecap:round;font-family:Helvetica" />
  <path
     d="M 1047.2,525.59998 L 984,562.20001"
     id="line4415"
     style="font-size:60px;stroke:#000000;stroke-width:4;stroke-linecap:round;font-family:Helvetica" />
  <path
     d="M 1027.3,509.39999 L 979.90002,536.79999"
     id="line4417"
     style="font-size:60px;stroke:#000000;stroke-width:4;stroke-linecap:round;font-family:Helvetica" />
  <path
     d="M 864,420 L 864,525.59998"
     id="line4419"
     style="font-size:60px;stroke:#000000;stroke-width:4;stroke-linecap:round;font-family:Helvetica" />
  <path
     d="M 864,420 L 955.59998,367.10001"
     id="line4421"
     style="font-size:60px;stroke:#000000;stroke-width:4;stroke-linecap:round;font-family:Helvetica" />
  <path
     d="M 131,420.10001 L 196,382.60001"
     id="line4423"
     style="font-size:60px;stroke:#000000;stroke-width:4;stroke-linecap:round;font-family:Helvetica" />
  <path
     d="M 560,383.89999 L 497.5,420"
     id="line4425"
     style="font-size:60px;stroke:#000000;stroke-width:4;stroke-linecap:round;font-family:Helvetica" />
  <path
     d="M 222.5,261.39999 L 130.89999,208.5"
     id="line4427"
     style="font-size:60px;stroke:#000000;stroke-width:4;stroke-linecap:round;font-family:Helvetica" />
  <path
     d="M 205.77031,383.20001 L 205.77031,340.25079 L 211.60039,340.25079 L 234.15898,373.9715 L 234.15898,340.25079 L 239.6082,340.25079 L 239.6082,383.20001 L 233.77812,383.20001 L 211.21953,349.45001 L 211.21953,383.20001 L 205.77031,383.20001 z"
     id="text4429"
     style="font-size:60px;fill:#000000;stroke-linecap:round;font-family:Helvetica" />
  <path
     d="M 16.10039,256.48203 C 16.100388,249.35315 18.014448,243.7721 21.842578,239.73886 C 25.67069,235.7057 30.612092,233.6891 36.666797,233.68906 C 40.631613,233.6891 44.205828,234.63636 47.389453,236.53085 C 50.573009,238.42542 52.999765,241.06702 54.669726,244.45566 C 56.339605,247.84436 57.174565,251.68713 57.174609,255.98398 C 57.174565,260.33946 56.29566,264.23594 54.53789,267.67343 C 52.780038,271.11094 50.289806,273.71347 47.067187,275.48105 C 43.8445,277.24863 40.367941,278.13242 36.6375,278.13242 C 32.594512,278.13242 28.981234,277.15585 25.797656,275.20273 C 22.614053,273.24961 20.201946,270.58359 18.561328,267.20468 C 16.920699,263.82579 16.100388,260.25157 16.10039,256.48203 L 16.10039,256.48203 z M 21.959765,256.56992 C 21.959757,261.74571 23.351357,265.82286 26.13457,268.80136 C 28.917758,271.77988 32.408965,273.26914 36.608203,273.26913 C 40.885519,273.26914 44.406023,271.76523 47.169726,268.75742 C 49.933362,265.74961 51.315196,261.48204 51.315234,255.95468 C 51.315196,252.45861 50.724376,249.40686 49.542773,246.79941 C 48.361097,244.19202 46.632584,242.17054 44.357226,240.73495 C 42.081807,239.29945 39.528098,238.58167 36.696094,238.58163 C 32.672637,238.58167 29.210726,239.96351 26.310351,242.72714 C 23.409951,245.49085 21.959757,250.1051 21.959765,256.56992 L 21.959765,256.56992 z"
     id="text4431"
     style="font-size:60px;fill:#000000;stroke-linecap:round;font-family:Helvetica" />
  <path
     d="M 568.1004,362.18204 C 568.1004,355.05316 570.01446,349.47211 573.84259,345.43887 C 577.6707,341.40571 582.6121,339.38911 588.66681,339.38907 C 592.63163,339.38911 596.20584,340.33638 599.38947,342.23087 C 602.57302,344.12544 604.99978,346.76703 606.66974,350.15567 C 608.33962,353.54437 609.17458,357.38714 609.17462,361.68399 C 609.17458,366.03948 608.29567,369.93596 606.5379,373.37344 C 604.78005,376.81095 602.28982,379.41349 599.0672,381.18106 C 595.84451,382.94864 592.36795,383.83243 588.63751,383.83243 C 584.59452,383.83243 580.98125,382.85587 577.79767,380.90274 C 574.61407,378.94962 572.20196,376.28361 570.56134,372.90469 C 568.92071,369.5258 568.1004,365.95159 568.1004,362.18204 L 568.1004,362.18204 z M 573.95978,362.26993 C 573.95977,367.44572 575.35137,371.52287 578.13458,374.50137 C 580.91777,377.47989 584.40898,378.96915 588.60822,378.96915 C 592.88553,378.96915 596.40604,377.46525 599.16974,374.45743 C 601.93337,371.44963 603.31521,367.18205 603.31525,361.65469 C 603.31521,358.15862 602.72439,355.10687 601.54279,352.49942 C 600.36111,349.89203 598.6326,347.87055 596.35724,346.43497 C 594.08182,344.99946 591.52811,344.28169 588.69611,344.28165 C 584.67265,344.28169 581.21074,345.66352 578.31036,348.42715 C 575.40996,351.19086 573.95977,355.80511 573.95978,362.26993 L 573.95978,362.26993 z"
     id="text4433"
     style="font-size:60px;fill:#000000;stroke-linecap:round;font-family:Helvetica" />
  <path
     d="M 568.1004,573.58203 C 568.1004,566.45315 570.01446,560.8721 573.84259,556.83887 C 577.6707,552.80571 582.6121,550.78911 588.66681,550.78906 C 592.63163,550.78911 596.20584,551.73637 599.38947,553.63086 C 602.57302,555.52543 604.99978,558.16703 606.66974,561.55566 C 608.33962,564.94437 609.17458,568.78714 609.17462,573.08398 C 609.17458,577.43947 608.29567,581.33595 606.5379,584.77344 C 604.78005,588.21094 602.28982,590.81348 599.0672,592.58105 C 595.84451,594.34863 592.36795,595.23242 588.63751,595.23242 C 584.59452,595.23242 580.98125,594.25586 577.79767,592.30273 C 574.61407,590.34961 572.20196,587.6836 570.56134,584.30469 C 568.92071,580.92579 568.1004,577.35158 568.1004,573.58203 L 568.1004,573.58203 z M 573.95978,573.66992 C 573.95977,578.84572 575.35137,582.92286 578.13458,585.90137 C 580.91777,588.87989 584.40898,590.36914 588.60822,590.36914 C 592.88553,590.36914 596.40604,588.86524 599.16974,585.85742 C 601.93337,582.84962 603.31521,578.58205 603.31525,573.05469 C 603.31521,569.55862 602.72439,566.50686 601.54279,563.89941 C 600.36111,561.29203 598.6326,559.27054 596.35724,557.83496 C 594.08182,556.39945 591.52811,555.68168 588.69611,555.68164 C 584.67265,555.68168 581.21074,557.06351 578.31036,559.82715 C 575.40996,562.59085 573.95977,567.20511 573.95978,573.66992 L 573.95978,573.66992 z"
     id="text4435"
     style="font-size:60px;fill:#000000;stroke-linecap:round;font-family:Helvetica" />
  <path
     d="M 1029.7703,436 L 1029.7703,393.05078 L 1035.6003,393.05078 L 1058.1589,426.77148 L 1058.1589,393.05078 L 1063.6082,393.05078 L 1063.6082,436 L 1057.7781,436 L 1035.2195,402.25 L 1035.2195,436 L 1029.7703,436 z"
     id="text4437"
     style="font-size:60px;fill:#000000;stroke-linecap:round;font-family:Helvetica" />
  <path
     d="M 937.77032,594.59998 L 937.77032,551.65076 L 943.6004,551.65076 L 966.159,585.37146 L 966.159,551.65076 L 971.60822,551.65076 L 971.60822,594.59998 L 965.77814,594.59998 L 943.21954,560.84998 L 943.21954,594.59998 L 937.77032,594.59998 z"
     id="text4439"
     style="font-size:60px;fill:#000000;stroke-linecap:round;font-family:Helvetica" />
  <path
     d="M 890.0047,277.29999 L 890.0047,234.35077 L 895.68829,234.35077 L 895.68829,251.98749 L 918.01251,251.98749 L 918.01251,234.35077 L 923.69611,234.35077 L 923.69611,277.29999 L 918.01251,277.29999 L 918.01251,257.05585 L 895.68829,257.05585 L 895.68829,277.29999 L 890.0047,277.29999 z M 933.1297,277.29999 L 933.1297,234.35077 L 938.95978,234.35077 L 961.51837,268.07147 L 961.51837,234.35077 L 966.96759,234.35077 L 966.96759,277.29999 L 961.13751,277.29999 L 938.57892,243.54999 L 938.57892,277.29999 L 933.1297,277.29999 z"
     id="text4441"
     style="font-size:60px;fill:#000000;stroke-linecap:round;font-family:Helvetica" />
  <path
     d="M 1336.4734,262.24139 L 1342.157,263.67694 C 1340.9655,268.34492 1338.822,271.90449 1335.7263,274.35565 C 1332.6306,276.80682 1328.8464,278.03241 1324.3738,278.03241 C 1319.7449,278.03241 1315.9802,277.09003 1313.0798,275.20526 C 1310.1794,273.3205 1307.9724,270.59101 1306.4587,267.01678 C 1304.9451,263.44258 1304.1882,259.60469 1304.1882,255.50311 C 1304.1882,251.03048 1305.0427,247.12912 1306.7517,243.79901 C 1308.4607,240.46897 1310.8923,237.93968 1314.0466,236.21112 C 1317.2009,234.48265 1320.6726,233.61839 1324.4617,233.61835 C 1328.7585,233.61839 1332.3718,234.71214 1335.3015,236.8996 C 1338.2312,239.08714 1340.2722,242.1633 1341.4246,246.12811 L 1335.8289,247.44647 C 1334.8327,244.32151 1333.3874,242.04612 1331.4929,240.6203 C 1329.5984,239.19456 1327.2156,238.48167 1324.3445,238.48163 C 1321.0437,238.48167 1318.2849,239.27268 1316.0681,240.85468 C 1313.8513,242.43674 1312.2937,244.56076 1311.3953,247.22675 C 1310.4968,249.89279 1310.0476,252.64181 1310.0476,255.47382 C 1310.0476,259.12618 1310.5798,262.31465 1311.6443,265.03925 C 1312.7087,267.76386 1314.364,269.8 1316.6101,271.14764 C 1318.8562,272.49531 1321.2878,273.16913 1323.905,273.16913 C 1327.0886,273.16913 1329.7839,272.25116 1331.991,270.41522 C 1334.198,268.57929 1335.6921,265.85469 1336.4734,262.24139 L 1336.4734,262.24139 z M 1348.3972,277.29999 L 1348.3972,234.35077 L 1353.6707,234.35077 L 1353.6707,277.29999 L 1348.3972,277.29999 z"
     id="text4443"
     style="font-size:60px;fill:#000000;stroke-linecap:round;font-family:Helvetica" />
  <path
     d="M 1310.1218,65.900002 L 1310.1218,22.950783 L 1339.0964,22.950783 L 1339.0964,28.019142 L 1315.8054,28.019142 L 1315.8054,41.319923 L 1335.9617,41.319923 L 1335.9617,46.388283 L 1315.8054,46.388283 L 1315.8054,65.900002 L 1310.1218,65.900002 z"
     id="text4445"
     style="font-size:60px;fill:#000000;stroke-linecap:round;font-family:Helvetica" />
</svg>
