<?xml version="1.0" encoding="utf-8"?>
<!-- Generator: Adobe Illustrator 19.2.1, SVG Export Plug-In . SVG Version: 6.00 Build 0)  -->
<svg version="1.1" id="Слой_1" xmlns="http://www.w3.org/2000/svg" xmlns:xlink="http://www.w3.org/1999/xlink" x="0px" y="0px"
	 viewBox="0 0 795.9 512" style="enable-background:new 0 0 795.9 512;" xml:space="preserve">
<g>
	<rect x="84.7" y="343.5" transform="matrix(0.3094 -0.9509 0.9509 0.3094 -253.5127 340.2746)" width="45.6" height="2.4"/>
	<rect x="129.7" y="376.2" transform="matrix(0.8089 -0.588 0.588 0.8089 -192.7514 161.8393)" width="45.6" height="2.4"/>
	<rect x="79.3" y="29.3" transform="matrix(0.5004 -0.8658 0.8658 0.5004 22.2773 99.63)" width="36.4" height="2.4"/>
	<rect x="55.2" y="36.9" transform="matrix(0.5005 -0.8658 0.8658 0.5005 -11.9499 71.992)" width="2.4" height="18.9"/>
	<rect x="50" y="45.8" transform="matrix(0.4995 -0.8663 0.8663 0.4995 -22.2768 72.0619)" width="2.4" height="19"/>
	<rect x="47.2" y="81.8" transform="matrix(0.8664 -0.4993 0.4993 0.8664 -33.8973 39.2417)" width="18.4" height="2.4"/>
	<rect x="42" y="72.8" transform="matrix(0.866 -0.5001 0.5001 0.866 -30.1387 35.526)" width="18.5" height="2.4"/>
	<rect x="300.3" y="369.4" transform="matrix(0.4997 -0.8662 0.8662 0.4997 -188.9001 457.3535)" width="2.4" height="45.6"/>
	<path d="M332.8,398.3l48.7-28.1l32.8,18.9l1.2-2.1l-32.8-18.9v-36.7h-2.4v36.7l-48.7,28.1l-49.3-28.5l0,0l-0.6-0.3l-0.6,0.3l0,0
		l0,0l-1.7,1l0,0l-47.5,27.4L183,368L171.9,334l-2.3,0.7l11,33.7l-45.2,32.8L91.1,369l0,0l-0.9-0.6l17.3-53.1H144v-2.4h-36.8
		l-27.5-47.6l0,0l-0.6-1.1l0.6-1.1l0,0l16.6-28.8l-2.1-1.2l-17.6,30.5l-0.4,0.6l0.4,0.7l28.5,49.3l-17,52.4l0,0l-0.9,2.7l0.9,0.7
		l44.7,32.5l0,0l1.6,1.2l0,0l0,0l0.7,0.5l2.3-1.7l0,0l44.4-32.2l48.6,28.1v54.9v2v0.7l2.3,1.3l0,0l46.4,26.8l0,0l1.7,1l0,0l0,0
		l0.6,0.3l0.6-0.3l0,0l49.3-28.5l32.8,18.9l1.2-2.1l-32.8-18.9V398.3z M233.1,398.3l48.7-28.1l1.1,0.7l0,0l47.6,27.5v56.2L282.8,482
		l0,0l-1.1,0.7l-48.7-28.1v-1.3V398.3z"/>
	<rect x="278.7" y="459.5" transform="matrix(0.8661 -0.4998 0.4998 0.8661 -189.881 212.3563)" width="45.6" height="2.4"/>
	<rect x="241" y="403.6" width="2.4" height="45.6"/>
	<rect x="394.4" y="372.7" transform="matrix(0.5004 -0.8658 0.8658 0.5004 -139.1294 536.7856)" width="2.4" height="32.5"/>
	<polygon points="430.2,453.3 430.2,454.6 397.4,473.5 398.6,475.5 430.3,457.3 430.3,457.3 432.6,455.9 432.6,455.3 432.6,453.3 
		432.6,417.9 430.2,417.9 	"/>
	<rect x="390.6" y="456.2" transform="matrix(0.866 -0.5 0.5 0.866 -174.1744 264.7165)" width="32.6" height="2.4"/>
	<rect x="440.5" y="230.8" width="2.4" height="45.6"/>
	<rect x="499.8" y="196.6" transform="matrix(0.4997 -0.8662 0.8662 0.4997 60.5928 543.7331)" width="2.4" height="45.6"/>
	<rect x="478.2" y="286.7" transform="matrix(0.8661 -0.4998 0.4998 0.8661 -76.8034 288.9471)" width="45.6" height="2.4"/>
	<path d="M563.9,207.3l-1.2-2.1l-31.6,18.3L481.9,195l-0.6-0.4l-0.6,0.4l-48.1,27.8l0,0l-2.3,1.3v0.7v2v54.9l-32.8,18.9l1.2,2.1
		l32.8-18.9l49.3,28.4l0.6,0.4l0.6-0.4l49.3-28.4l29.3,16.9l1.2-2.1l-29.3-16.9v-56.2L563.9,207.3z M432.6,225.5l47.6-27.5l0,0
		l1.1-0.6l1.1,0.6l0,0l47.6,27.5v56.2l-47.6,27.5l0,0l-1.1,0.6l-1.1-0.6l0,0l-47.6-27.5v-54.9V225.5z"/>
	<rect x="727.6" y="200.3" transform="matrix(0.8661 -0.4998 0.4998 0.8661 -0.2322 402.0352)" width="45.6" height="2.4"/>
	<rect x="749.2" y="110.2" transform="matrix(0.4997 -0.8662 0.8662 0.4997 260.2 716.5363)" width="2.4" height="45.6"/>
	<rect x="690" y="144.4" width="2.4" height="45.6"/>
	<path d="M157.1,326.8c3.1,1.8,7,1.8,7,1.8c3.9,0,7-1.8,7-1.8c3.1-1.8,4.9-5.2,4.9-5.2c1.8-3.4,1.8-7.8,1.8-7.8
		c0-4.5-1.8-7.8-1.8-7.8c-1.8-3.4-4.9-5.2-4.9-5.2c-3.1-1.8-7-1.8-7-1.8c-3.9,0-7,1.8-7,1.8c-3.1,1.8-4.9,5.2-4.9,5.2
		c-1.8,3.4-1.8,7.8-1.8,7.8c0,4.4,1.8,7.7,1.8,7.7C154,324.9,157.1,326.8,157.1,326.8z M155.6,307.7c1.2-2.7,3.4-4,3.4-4
		c2.2-1.4,5.1-1.4,5.1-1.4c2.9,0,5.1,1.4,5.1,1.4c2.2,1.4,3.4,4,3.4,4c1.2,2.6,1.2,6.2,1.2,6.2c0,3.6-1.2,6.2-1.2,6.2
		c-1.3,2.6-3.5,4-3.5,4c-2.2,1.4-5.1,1.4-5.1,1.4c-2.8,0-5-1.4-5-1.4c-2.2-1.4-3.5-4-3.5-4c-1.2-2.6-1.2-6.1-1.2-6.1
		C154.4,310.3,155.6,307.7,155.6,307.7z"/>
	<polygon points="95.6,199.5 95.6,228.1 99.2,228.1 99.2,205.8 99.2,205.8 113.6,228.1 117.5,228.1 117.5,199.5 113.9,199.5 
		113.9,221.9 113.8,221.9 99.5,199.5 	"/>
	<polygon points="125.3,214.7 139.4,214.7 139.4,228.1 143.2,228.1 143.2,199.5 139.4,199.5 139.4,211.3 125.3,211.3 125.3,199.5 
		121.5,199.5 121.5,228.1 125.3,228.1 	"/>
	<polygon points="107.6,113.9 89.4,82.4 87.3,83.6 104.5,113.4 104.5,113.4 105.2,114.5 104.5,115.6 104.5,115.7 76.8,163.7 
		76.4,164.4 76.8,165.1 93.8,194.5 95.8,193.3 79.8,165.5 79.8,165.5 79.2,164.4 79.8,163.3 79.8,163.3 107.6,115.2 108,114.5 	"/>
	<path d="M83.9,78.1c2.4-1.1,3.7-3.1,3.7-3.1c1.4-2,1.4-4.4,1.4-4.4c0-2.4-1-4-1-4c-1-1.6-3.3-2.7-3.3-2.7c-2.2-1.1-6.1-2-6.1-2
		c-2.8-0.6-4.3-1.2-4.3-1.2c-1.5-0.5-2.2-1.4-2.2-1.4c-0.7-0.8-0.7-2.2-0.7-2.2c0-1.4,0.8-2.4,0.8-2.4c0.8-1,2.2-1.6,2.2-1.6
		c1.4-0.5,3.3-0.5,3.3-0.5c2.8,0,4.5,1.3,4.5,1.3c1.6,1.4,2.2,4.5,2.2,4.5h0.1l3.7-0.8c-0.4-2.6-1.7-4.4-1.7-4.4
		c-1.4-1.9-3.6-2.8-3.6-2.8c-2.3-1-5.2-1-5.2-1c-2.8,0-5.1,1-5.1,1c-2.2,1-3.5,2.7-3.5,2.7c-1.3,1.8-1.3,3.9-1.3,3.9
		c0,2,0.6,3.4,0.6,3.4c0.7,1.4,2.3,2.6,2.3,2.6c1.7,1.1,4.7,1.9,4.7,1.9c0.6,0.2,2.3,0.6,2.3,0.6c2.8,0.6,4.2,1.1,4.2,1.1
		c1.8,0.6,2.6,1.6,2.6,1.6c0.9,1,0.9,2.8,0.9,2.8c0,1.3-0.9,2.4-0.9,2.4c-1,1.1-2.5,1.7-2.5,1.7C80.2,76,78.4,76,78.4,76
		c-3.6,0-5.6-1.8-5.6-1.8c-2-1.8-2.4-5.3-2.4-5.3l-3.7,0.9c0.6,4.6,3.7,7,3.7,7c3.1,2.4,8.2,2.4,8.2,2.4
		C81.5,79.2,83.9,78.1,83.9,78.1z"/>
	<path d="M34.9,22.6c-3.1-1.8-7-1.8-7-1.8c-3.9,0-7,1.8-7,1.8c-3.1,1.8-4.9,5.2-4.9,5.2c-1.8,3.4-1.8,7.8-1.8,7.8
		c0,4.3,1.8,7.7,1.8,7.7c1.8,3.4,4.9,5.2,4.9,5.2c3.1,1.9,7,1.9,7,1.9c3.9,0,7-1.8,7-1.8c3.1-1.8,4.9-5.2,4.9-5.2
		c1.8-3.4,1.8-7.8,1.8-7.8c0-4.5-1.8-7.8-1.8-7.8C38,24.4,34.9,22.6,34.9,22.6z M36.4,41.9c-1.3,2.6-3.5,4-3.5,4
		c-2.2,1.4-5.1,1.4-5.1,1.4c-2.8,0-5-1.4-5-1.4c-2.2-1.4-3.5-4-3.5-4c-1.2-2.6-1.2-6.1-1.2-6.1c0-3.6,1.2-6.3,1.2-6.3
		c1.2-2.6,3.4-4,3.4-4c2.2-1.4,5.1-1.4,5.1-1.4c2.9,0,5.1,1.4,5.1,1.4c2.2,1.4,3.4,4,3.4,4c1.2,2.6,1.2,6.2,1.2,6.2
		C37.6,39.3,36.4,41.9,36.4,41.9z"/>
	<path d="M34.9,80.2c-3.1-1.8-7-1.8-7-1.8c-3.9,0-7,1.8-7,1.8c-3.1,1.8-4.9,5.2-4.9,5.2c-1.8,3.4-1.8,7.8-1.8,7.8
		c0,4.3,1.8,7.7,1.8,7.7c1.8,3.4,4.9,5.2,4.9,5.2c3.1,1.9,7,1.9,7,1.9c3.9,0,7-1.8,7-1.8c3.1-1.8,4.9-5.2,4.9-5.2
		c1.8-3.4,1.8-7.8,1.8-7.8c0-4.5-1.8-7.8-1.8-7.8C38,82,34.9,80.2,34.9,80.2z M36.4,99.5c-1.3,2.6-3.5,4-3.5,4
		c-2.2,1.4-5.1,1.4-5.1,1.4c-2.8,0-5-1.4-5-1.4c-2.2-1.4-3.5-4-3.5-4c-1.2-2.6-1.2-6.1-1.2-6.1c0-3.6,1.2-6.3,1.2-6.3
		c1.2-2.6,3.4-4,3.4-4c2.2-1.4,5.1-1.4,5.1-1.4c2.9,0,5.1,1.4,5.1,1.4c2.2,1.4,3.4,4,3.4,4c1.2,2.6,1.2,6.2,1.2,6.2
		C37.6,96.9,36.4,99.5,36.4,99.5z"/>
	<polygon points="438.8,405.2 438.7,405.2 424.3,382.9 420.4,382.9 420.4,411.5 424,411.5 424,389.1 424,389.1 438.4,411.5 
		442.3,411.5 442.3,382.9 438.8,382.9 	"/>
	<polygon points="388.8,491.6 388.8,491.6 374.4,469.3 370.5,469.3 370.5,497.9 374.1,497.9 374.1,475.5 374.2,475.5 388.6,497.9 
		392.4,497.9 392.4,469.3 388.8,469.3 	"/>
	<polygon points="374.1,302.7 374.2,302.7 388.6,325.1 392.4,325.1 392.4,296.5 388.8,296.5 388.8,318.8 388.8,318.8 374.4,296.5 
		370.5,296.5 370.5,325.1 374.1,325.1 	"/>
	<polygon points="348.6,311.6 362.7,311.6 362.7,325.1 366.5,325.1 366.5,296.5 362.7,296.5 362.7,308.2 348.6,308.2 348.6,296.5 
		344.8,296.5 344.8,325.1 348.6,325.1 	"/>
	<rect x="593.7" y="296.7" width="3.5" height="28.6"/>
	<path d="M583.4,320.7c-2.2,1.8-5.5,1.8-5.5,1.8c-2.9,0-5-1.4-5-1.4c-2.1-1.4-3.2-4.1-3.2-4.1c-1.1-2.6-1.1-6.3-1.1-6.3
		c0-3.3,1.1-5.9,1.1-5.9c1.1-2.6,3.2-4,3.2-4c2.1-1.4,5.1-1.4,5.1-1.4c3.1,0,5,1.5,5,1.5c2,1.5,2.9,4.5,2.9,4.5l3.7-0.9
		c-1.1-4.1-4.1-6.2-4.1-6.2c-3-2.1-7.4-2.1-7.4-2.1c-3.8,0-6.9,1.8-6.9,1.8c-3,1.8-4.7,5.1-4.7,5.1c-1.7,3.3-1.7,7.8-1.7,7.8
		c0,4.6,1.6,8,1.6,8c1.6,3.4,4.6,5.2,4.6,5.2c3,1.8,7.1,1.8,7.1,1.8c3,0,5.5-1.2,5.5-1.2c2.5-1.1,4.2-3.3,4.2-3.3
		c1.7-2.2,2.4-5.1,2.4-5.1l-3.7-0.9C585.6,318.9,583.4,320.7,583.4,320.7z"/>
	<path d="M592.9,188c-1.8-3.4-4.9-5.2-4.9-5.2c-3.1-1.8-7-1.8-7-1.8c-3.9,0-7,1.8-7,1.8c-3.1,1.8-4.9,5.2-4.9,5.2
		c-1.8,3.4-1.8,7.8-1.8,7.8c0,4.3,1.8,7.7,1.8,7.7c1.8,3.4,4.9,5.2,4.9,5.2c3.1,1.9,7,1.9,7,1.9c3.9,0,7-1.8,7-1.8
		c3.1-1.8,4.9-5.2,4.9-5.2c1.8-3.3,1.8-7.8,1.8-7.8C594.7,191.3,592.9,188,592.9,188z M589.5,202c-1.2,2.6-3.4,4-3.4,4
		c-2.2,1.4-5.1,1.4-5.1,1.4c-2.8,0-5-1.4-5-1.4c-2.2-1.4-3.5-4-3.5-4c-1.2-2.6-1.2-6.1-1.2-6.1c0-3.6,1.2-6.3,1.2-6.3
		c1.2-2.6,3.4-4,3.4-4c2.2-1.4,5.1-1.4,5.1-1.4c2.9,0,5.1,1.4,5.1,1.4c2.2,1.4,3.4,4,3.4,4c1.2,2.6,1.2,6.2,1.2,6.2
		C590.8,199.4,589.5,202,589.5,202z"/>
	<path d="M781.1,137.4L731.9,109V67h-2.4v42l-49.2,28.4l-0.7,0.4v0.7v2v54.9l-48.7,28.1l-1.1-0.7l0,0l-30.4-17.6l-1.2,2.1l32.1,18.6
		l0,0l0.6,0.3l2.4-1.3l0,0l47.5-27.4l49.3,28.4l0.6,0.4l2.4-1.3l0,0l48.1-27.8l0.7-0.4v-0.7v-2v-53.6v-2v-0.7L781.1,137.4z
		 M779.4,194.1v1.3l-1.2,0.7l0,0l-47.6,27.4l-1.1-0.7l0,0L682,195.4v-54.9v-1.3l1.2-0.7l0,0l47.5-27.4l47.6,27.4l0,0l1.2,0.7v1.3
		V194.1z"/>
	<polygon points="725.4,52.9 738.2,52.9 738.2,49.5 725.4,49.5 725.4,40.7 739.7,40.7 739.7,37.3 721.6,37.3 721.6,65.9 725.4,65.9 
			"/>
</g>
</svg>
