<?xml version="1.0" encoding="utf-8"?>
<!-- Generator: Adobe Illustrator 19.2.1, SVG Export Plug-In . SVG Version: 6.00 Build 0)  -->
<svg version="1.1" id="Слой_1" xmlns="http://www.w3.org/2000/svg" xmlns:xlink="http://www.w3.org/1999/xlink" x="0px" y="0px"
	 viewBox="0 0 723.9 328.2" style="enable-background:new 0 0 723.9 328.2;" xml:space="preserve">
<g>
	<rect x="311" y="162.4" transform="matrix(0.8658 -0.5004 0.5004 0.8658 -37.0554 189.0279)" width="45.6" height="2.4"/>
	<rect x="338.5" y="82.4" transform="matrix(0.5 -0.866 0.866 0.5 84.5108 343.4027)" width="2.4" height="32.2"/>
	<polygon points="263,137.2 265.4,137.2 265.4,101.3 297.9,82.5 296.7,80.4 264.2,99.2 231.7,80.4 230.5,82.5 263,101.3 	"/>
	<rect x="273.4" y="106.6" width="2.4" height="30.6"/>
	<path d="M164.5,99.2l-49.3-28.5l0,0l-0.6-0.3l-0.6,0.3l0,0l0,0l-1.7,1l0,0L65.8,98.5l0,0l-2.3,1.3v0.7v2v54.9l-49.3,28.5l1.2,2.1
		l49.3-28.5l48.7,28.1v24.9h2.4v-24.9l49.3-28.4l0.6-0.3v-0.7v-2v-54.9l32.5-18.8l-1.2-2.1L164.5,99.2z M163.3,157.5l-1.2,0.7l0,0
		l-47.5,27.4l-48.7-28.1v-54.9v-1.3l48.7-28.1l1.1,0.7l0,0l47.6,27.5v54.9V157.5z"/>
	<rect x="111.5" y="162.4" transform="matrix(0.8656 -0.5007 0.5007 0.8656 -63.8641 89.2425)" width="45.6" height="2.4"/>
	<rect x="73.9" y="106.6" width="2.4" height="45.6"/>
	<rect x="133.1" y="72.3" transform="matrix(0.5008 -0.8656 0.8656 0.5008 -15.306 163.7659)" width="2.4" height="45.6"/>
	<polygon points="396.5,80.4 364,99.2 331.5,80.4 330.3,82.5 362.8,101.3 362.8,156.2 362.8,157.5 315.2,184.9 315.2,184.9 
		314.1,185.6 313,184.9 313,184.9 281.6,166.8 280.4,168.9 313.5,188 313.5,188 314.1,188.4 314.7,188 314.7,188 362.9,160.2 
		362.9,160.2 365.2,158.9 365.2,158.2 365.2,156.2 365.2,101.3 397.7,82.5 	"/>
	<rect x="492.7" y="140.8" transform="matrix(0.5004 -0.8658 0.8658 0.5004 105.1043 509.3208)" width="2.4" height="45.6"/>
	<rect x="471" y="94" transform="matrix(0.8658 -0.5004 0.5004 0.8658 18.6694 259.9101)" width="45.6" height="2.4"/>
	<rect x="592.9" y="134.4" transform="matrix(0.3086 -0.9512 0.9512 0.3086 261.2349 673.8162)" width="2.4" height="45.6"/>
	<path d="M637.5,147.5l-19.7,27.1l-53.1-17.3v-55.9l36.6-11.9l-0.7-2.3l-36.9,12L516,71.7l0,0l-2.4-1.3l-0.6,0.4l-49.3,28.4
		l-32.5-18.8l-1.2,2.1l32.5,18.8v54.9v2v0.7l2.3,1.3l0,0L513,188l0.6,0.4l2.4-1.3l0,0l47.7-27.5l53.7,17.4l17.6,54.2l2.3-0.7
		l-17.6-54.2l19.8-27.3L637.5,147.5z M464.9,101.3l47.6-27.5l0,0l1.1-0.7l48.7,28.1v56.2l-48.7,28.1l-1.1-0.7l0,0l-47.6-27.5v-1.3
		V101.3z"/>
	<rect x="633.7" y="100.6" transform="matrix(0.8086 -0.5884 0.5884 0.8086 59.3917 393.7768)" width="2.4" height="10"/>
	<rect x="571.6" y="102.2" transform="matrix(0.9509 -0.3094 0.3094 0.9509 -3.1329 187.0674)" width="33.4" height="2.4"/>
	<rect x="412.7" y="14.2" width="2.4" height="36.6"/>
	<rect x="113.4" y="252.1" width="2.4" height="21.2"/>
	<rect x="131.4" y="236.6" width="23.2" height="2.4"/>
	<rect x="131.4" y="226.2" width="23.2" height="2.4"/>
	<rect x="74.4" y="226.2" width="23.8" height="2.4"/>
	<rect x="74.4" y="236.6" width="23.8" height="2.4"/>
	<rect x="669.8" y="128.2" width="40" height="2.4"/>
	<polygon points="306.3,63.3 306.5,63.3 321.9,85.4 325.3,85.4 325.3,57.2 321.9,57.2 321.9,79.3 321.7,79.3 306.3,57.2 302.9,57.2 
		302.9,85.4 306.3,85.4 	"/>
	<polygon points="272,165.7 271.8,165.7 256.4,143.6 253,143.6 253,171.8 256.4,171.8 256.4,149.7 256.6,149.7 272.1,171.8 
		275.5,171.8 275.5,143.6 272,143.6 	"/>
	<polygon points="222.1,79.3 221.9,79.3 206.5,57.2 203.1,57.2 203.1,85.4 206.5,85.4 206.5,63.3 206.7,63.3 222.2,85.4 225.6,85.4 
		225.6,57.2 222.1,57.2 	"/>
	<polygon points="222.1,37.2 206.6,37.2 206.6,25 203.1,25 203.1,53.2 206.6,53.2 206.6,40.4 222.1,40.4 222.1,53.2 225.6,53.2 
		225.6,25 222.1,25 	"/>
	<polygon points="421.6,79.3 421.5,79.3 406,57.2 402.6,57.2 402.6,85.4 406.1,85.4 406.1,63.3 406.3,63.3 421.7,85.4 425.1,85.4 
		425.1,57.2 421.6,57.2 	"/>
	<polygon points="659.9,136.9 659.7,136.9 644.3,114.8 640.9,114.8 640.9,143 644.4,143 644.4,120.9 644.5,120.9 660,143 663.4,143 
		663.4,114.8 659.9,114.8 	"/>
	<polygon points="610.5,74.3 610.7,74.3 626.1,96.4 629.5,96.4 629.5,68.2 626.1,68.2 626.1,90.3 625.9,90.3 610.5,68.2 607.1,68.2 
		607.1,96.4 610.5,96.4 	"/>
	<path d="M114.9,243.7c-4,0-6.9-2-7.2-5h-3.6c0.3,5,4.5,8.2,10.4,8.2c6.5,0,10.6-3.2,10.6-8.4c0-4-2.4-6.3-8.2-7.8l-3-0.8
		c-3.8-1-5.4-2.2-5.4-4.4c0-2.7,2.6-4.6,6.2-4.6c3.7,0,6.1,1.9,6.4,4.9h3.5c-0.2-4.7-4.2-8-9.8-8c-5.8,0-10,3.3-10,8
		c0,3.8,2.3,6.1,7.5,7.4l3.6,1c3.8,1,5.4,2.4,5.4,4.8C121.4,241.7,118.7,243.7,114.9,243.7z"/>
	<polygon points="122.3,301.7 122.2,301.7 106.7,279.6 103.3,279.6 103.3,307.8 106.8,307.8 106.8,285.7 107,285.7 122.4,307.8 
		125.8,307.8 125.8,279.6 122.3,279.6 	"/>
	<polygon points="148.8,291.8 133.3,291.8 133.3,279.6 129.8,279.6 129.8,307.8 133.3,307.8 133.3,295 148.8,295 148.8,307.8 
		152.3,307.8 152.3,279.6 148.8,279.6 	"/>
	<path d="M159.9,311.8l5-5.2c3.3-3.4,4.3-5,4.3-7.2c0-3-2.8-5.4-6.3-5.4c-3.7,0-6.5,2.6-6.5,6h2.4c0-2.2,1.8-3.9,4-3.9
		c2.2,0,3.9,1.5,3.9,3.4c0,1.6-0.6,2.7-3.3,5.5l-7,7.3v1.7h13v-2.2L159.9,311.8L159.9,311.8z"/>
	<path d="M172.2,217.8c-8,0-13,5.6-13,14.6c0,9,5,14.6,13,14.6c8,0,13-5.6,13-14.6C185.1,223.4,180.1,217.8,172.2,217.8z
		 M172.2,243.7c-5.8,0-9.4-4.4-9.4-11.3c0-6.9,3.6-11.3,9.4-11.3s9.4,4.4,9.4,11.3C181.5,239.3,177.9,243.7,172.2,243.7z"/>
	<path d="M57,217.8c-8,0-13,5.6-13,14.6c0,9,5,14.6,13,14.6c8,0,13-5.6,13-14.6C69.9,223.4,64.9,217.8,57,217.8z M57,243.7
		c-5.8,0-9.4-4.4-9.4-11.3c0-6.9,3.6-11.3,9.4-11.3s9.4,4.4,9.4,11.3C66.3,239.3,62.7,243.7,57,243.7z"/>
</g>
</svg>
