<?xml version="1.0" encoding="utf-8" ?>
<svg baseProfile="full" height="900px" version="1.1" width="1300px" xmlns="http://www.w3.org/2000/svg" xmlns:ev="http://www.w3.org/2001/xml-events" xmlns:xlink="http://www.w3.org/1999/xlink"><defs /><rect fill="rgb(255,255,255)" height="855" rx="20" stroke="black" stroke-width="3" width="1276" x="12" y="22" /><rect fill="rgb(255,255,255)" height="815" stroke="black" stroke-width="3" width="1236" x="32" y="42" /><text alignment-baseline="middle" font-family="Futura" font-size="40" text-anchor="middle" x="97.5" y="153">A</text><text alignment-baseline="middle" font-family="Futura" font-size="40" text-anchor="middle" x="97.5" y="243">B</text><text alignment-baseline="middle" font-family="Futura" font-size="40" text-anchor="middle" x="97.5" y="333">C</text><text alignment-baseline="middle" font-family="Futura" font-size="40" text-anchor="middle" x="97.5" y="423">D</text><text alignment-baseline="middle" font-family="Futura" font-size="40" text-anchor="middle" x="97.5" y="513">E</text><text alignment-baseline="middle" font-family="Futura" font-size="40" text-anchor="middle" x="97.5" y="603">F</text><text alignment-baseline="middle" font-family="Futura" font-size="40" text-anchor="middle" x="97.5" y="693">G</text><text alignment-baseline="middle" font-family="Futura" font-size="40" text-anchor="middle" x="97.5" y="783">H</text><text alignment-baseline="middle" font-family="Futura" font-size="40" text-anchor="middle" x="165" y="85.5">1</text><text alignment-baseline="middle" font-family="Futura" font-size="40" text-anchor="middle" x="255" y="85.5">2</text><text alignment-baseline="middle" font-family="Futura" font-size="40" text-anchor="middle" x="345" y="85.5">3</text><text alignment-baseline="middle" font-family="Futura" font-size="40" text-anchor="middle" x="435" y="85.5">4</text><text alignment-baseline="middle" font-family="Futura" font-size="40" text-anchor="middle" x="525" y="85.5">5</text><text alignment-baseline="middle" font-family="Futura" font-size="40" text-anchor="middle" x="615" y="85.5">6</text><text alignment-baseline="middle" font-family="Futura" font-size="40" text-anchor="middle" x="705" y="85.5">7</text><text alignment-baseline="middle" font-family="Futura" font-size="40" text-anchor="middle" x="795" y="85.5">8</text><text alignment-baseline="middle" font-family="Futura" font-size="40" text-anchor="middle" x="885" y="85.5">9</text><text alignment-baseline="middle" font-family="Futura" font-size="40" text-anchor="middle" x="975" y="85.5">10</text><text alignment-baseline="middle" font-family="Futura" font-size="40" text-anchor="middle" x="1065" y="85.5">11</text><text alignment-baseline="middle" font-family="Futura" font-size="40" text-anchor="middle" x="1155" y="85.5">12</text><circle cx="165" cy="144" fill="rgb(255,255,255)" r="36" stroke="black" stroke-width="3" /><circle cx="255" cy="144" fill="rgb(255,255,255)" r="36" stroke="black" stroke-width="3" /><circle cx="345" cy="144" fill="rgb(255,255,255)" r="36" stroke="black" stroke-width="3" /><circle cx="435" cy="144" fill="rgb(255,255,255)" r="36" stroke="black" stroke-width="3" /><circle cx="525" cy="144" fill="rgb(255,255,255)" r="36" stroke="black" stroke-width="3" /><circle cx="615" cy="144" fill="rgb(255,255,255)" r="36" stroke="black" stroke-width="3" /><circle cx="705" cy="144" fill="rgb(255,255,255)" r="36" stroke="black" stroke-width="3" /><circle cx="795" cy="144" fill="rgb(255,255,255)" r="36" stroke="black" stroke-width="3" /><circle cx="885" cy="144" fill="rgb(255,255,255)" r="36" stroke="black" stroke-width="3" /><circle cx="975" cy="144" fill="rgb(255,255,255)" r="36" stroke="black" stroke-width="3" /><circle cx="1065" cy="144" fill="rgb(255,255,255)" r="36" stroke="black" stroke-width="3" /><circle cx="1155" cy="144" fill="rgb(255,255,255)" r="36" stroke="black" stroke-width="3" /><circle cx="165" cy="234" fill="rgb(255,255,255)" r="36" stroke="black" stroke-width="3" /><circle cx="255" cy="234" fill="rgb(255,255,255)" r="36" stroke="black" stroke-width="3" /><circle cx="345" cy="234" fill="rgb(255,255,255)" r="36" stroke="black" stroke-width="3" /><circle cx="435" cy="234" fill="rgb(255,255,255)" r="36" stroke="black" stroke-width="3" /><circle cx="525" cy="234" fill="rgb(255,255,255)" r="36" stroke="black" stroke-width="3" /><circle cx="615" cy="234" fill="rgb(255,255,255)" r="36" stroke="black" stroke-width="3" /><circle cx="705" cy="234" fill="rgb(255,255,255)" r="36" stroke="black" stroke-width="3" /><circle cx="795" cy="234" fill="rgb(255,255,255)" r="36" stroke="black" stroke-width="3" /><circle cx="885" cy="234" fill="rgb(255,255,255)" r="36" stroke="black" stroke-width="3" /><circle cx="975" cy="234" fill="rgb(255,255,255)" r="36" stroke="black" stroke-width="3" /><circle cx="1065" cy="234" fill="rgb(255,255,255)" r="36" stroke="black" stroke-width="3" /><circle cx="1155" cy="234" fill="rgb(255,255,255)" r="36" stroke="black" stroke-width="3" /><circle cx="165" cy="324" fill="rgb(255,255,255)" r="36" stroke="black" stroke-width="3" /><circle cx="255" cy="324" fill="rgb(255,255,255)" r="36" stroke="black" stroke-width="3" /><circle cx="345" cy="324" fill="rgb(255,255,255)" r="36" stroke="black" stroke-width="3" /><circle cx="435" cy="324" fill="rgb(255,255,255)" r="36" stroke="black" stroke-width="3" /><circle cx="525" cy="324" fill="rgb(255,255,255)" r="36" stroke="black" stroke-width="3" /><circle cx="615" cy="324" fill="rgb(255,255,255)" r="36" stroke="black" stroke-width="3" /><circle cx="705" cy="324" fill="rgb(255,255,255)" r="36" stroke="black" stroke-width="3" /><circle cx="795" cy="324" fill="rgb(255,255,255)" r="36" stroke="black" stroke-width="3" /><circle cx="885" cy="324" fill="rgb(255,255,255)" r="36" stroke="black" stroke-width="3" /><circle cx="975" cy="324" fill="rgb(255,255,255)" r="36" stroke="black" stroke-width="3" /><circle cx="1065" cy="324" fill="rgb(255,255,255)" r="36" stroke="black" stroke-width="3" /><circle cx="1155" cy="324" fill="rgb(255,255,255)" r="36" stroke="black" stroke-width="3" /><circle cx="165" cy="414" fill="rgb(255,255,255)" r="36" stroke="black" stroke-width="3" /><circle cx="255" cy="414" fill="rgb(255,255,255)" r="36" stroke="black" stroke-width="3" /><circle cx="345" cy="414" fill="rgb(255,255,255)" r="36" stroke="black" stroke-width="3" /><circle cx="435" cy="414" fill="rgb(255,255,255)" r="36" stroke="black" stroke-width="3" /><circle cx="525" cy="414" fill="rgb(255,255,255)" r="36" stroke="black" stroke-width="3" /><circle cx="615" cy="414" fill="rgb(255,255,255)" r="36" stroke="black" stroke-width="3" /><circle cx="705" cy="414" fill="rgb(255,255,255)" r="36" stroke="black" stroke-width="3" /><circle cx="795" cy="414" fill="rgb(255,255,255)" r="36" stroke="black" stroke-width="3" /><circle cx="885" cy="414" fill="rgb(255,255,255)" r="36" stroke="black" stroke-width="3" /><circle cx="975" cy="414" fill="rgb(255,255,255)" r="36" stroke="black" stroke-width="3" /><circle cx="1065" cy="414" fill="rgb(255,255,255)" r="36" stroke="black" stroke-width="3" /><circle cx="1155" cy="414" fill="rgb(255,255,255)" r="36" stroke="black" stroke-width="3" /><circle cx="165" cy="504" fill="rgb(255,255,255)" r="36" stroke="black" stroke-width="3" /><circle cx="255" cy="504" fill="rgb(255,255,255)" r="36" stroke="black" stroke-width="3" /><circle cx="345" cy="504" fill="rgb(255,255,255)" r="36" stroke="black" stroke-width="3" /><circle cx="435" cy="504" fill="rgb(255,255,255)" r="36" stroke="black" stroke-width="3" /><circle cx="525" cy="504" fill="rgb(255,255,255)" r="36" stroke="black" stroke-width="3" /><circle cx="615" cy="504" fill="rgb(255,255,255)" r="36" stroke="black" stroke-width="3" /><circle cx="705" cy="504" fill="rgb(255,255,255)" r="36" stroke="black" stroke-width="3" /><circle cx="795" cy="504" fill="rgb(255,255,255)" r="36" stroke="black" stroke-width="3" /><circle cx="885" cy="504" fill="rgb(255,255,255)" r="36" stroke="black" stroke-width="3" /><circle cx="975" cy="504" fill="rgb(255,255,255)" r="36" stroke="black" stroke-width="3" /><circle cx="1065" cy="504" fill="rgb(255,255,255)" r="36" stroke="black" stroke-width="3" /><circle cx="1155" cy="504" fill="rgb(255,255,255)" r="36" stroke="black" stroke-width="3" /><circle cx="165" cy="594" fill="rgb(255,255,255)" r="36" stroke="black" stroke-width="3" /><circle cx="255" cy="594" fill="rgb(255,255,255)" r="36" stroke="black" stroke-width="3" /><circle cx="345" cy="594" fill="rgb(255,255,255)" r="36" stroke="black" stroke-width="3" /><circle cx="435" cy="594" fill="rgb(255,255,255)" r="36" stroke="black" stroke-width="3" /><circle cx="525" cy="594" fill="rgb(255,255,255)" r="36" stroke="black" stroke-width="3" /><circle cx="615" cy="594" fill="rgb(255,255,255)" r="36" stroke="black" stroke-width="3" /><circle cx="705" cy="594" fill="rgb(255,255,255)" r="36" stroke="black" stroke-width="3" /><circle cx="795" cy="594" fill="rgb(255,255,255)" r="36" stroke="black" stroke-width="3" /><circle cx="885" cy="594" fill="rgb(255,255,255)" r="36" stroke="black" stroke-width="3" /><circle cx="975" cy="594" fill="rgb(255,255,255)" r="36" stroke="black" stroke-width="3" /><circle cx="1065" cy="594" fill="rgb(255,255,255)" r="36" stroke="black" stroke-width="3" /><circle cx="1155" cy="594" fill="rgb(255,255,255)" r="36" stroke="black" stroke-width="3" /><circle cx="165" cy="684" fill="rgb(255,255,255)" r="36" stroke="black" stroke-width="3" /><circle cx="255" cy="684" fill="rgb(255,255,255)" r="36" stroke="black" stroke-width="3" /><circle cx="345" cy="684" fill="rgb(255,255,255)" r="36" stroke="black" stroke-width="3" /><circle cx="435" cy="684" fill="rgb(255,255,255)" r="36" stroke="black" stroke-width="3" /><circle cx="525" cy="684" fill="rgb(255,255,255)" r="36" stroke="black" stroke-width="3" /><circle cx="615" cy="684" fill="rgb(255,255,255)" r="36" stroke="black" stroke-width="3" /><circle cx="705" cy="684" fill="rgb(255,255,255)" r="36" stroke="black" stroke-width="3" /><circle cx="795" cy="684" fill="rgb(255,255,255)" r="36" stroke="black" stroke-width="3" /><circle cx="885" cy="684" fill="rgb(255,255,255)" r="36" stroke="black" stroke-width="3" /><circle cx="975" cy="684" fill="rgb(255,255,255)" r="36" stroke="black" stroke-width="3" /><circle cx="1065" cy="684" fill="rgb(255,255,255)" r="36" stroke="black" stroke-width="3" /><circle cx="1155" cy="684" fill="rgb(255,255,255)" r="36" stroke="black" stroke-width="3" /><circle cx="165" cy="774" fill="rgb(255,255,255)" r="36" stroke="black" stroke-width="3" /><circle cx="255" cy="774" fill="rgb(255,255,255)" r="36" stroke="black" stroke-width="3" /><circle cx="345" cy="774" fill="rgb(255,255,255)" r="36" stroke="black" stroke-width="3" /><circle cx="435" cy="774" fill="rgb(255,255,255)" r="36" stroke="black" stroke-width="3" /><circle cx="525" cy="774" fill="rgb(255,255,255)" r="36" stroke="black" stroke-width="3" /><circle cx="615" cy="774" fill="rgb(255,255,255)" r="36" stroke="black" stroke-width="3" /><circle cx="705" cy="774" fill="rgb(255,255,255)" r="36" stroke="black" stroke-width="3" /><circle cx="795" cy="774" fill="rgb(255,255,255)" r="36" stroke="black" stroke-width="3" /><circle cx="885" cy="774" fill="rgb(255,255,255)" r="36" stroke="black" stroke-width="3" /><circle cx="975" cy="774" fill="rgb(255,255,255)" r="36" stroke="black" stroke-width="3" /><circle cx="1065" cy="774" fill="rgb(255,255,255)" r="36" stroke="black" stroke-width="3" /><circle cx="1155" cy="774" fill="rgb(255,255,255)" r="36" stroke="black" stroke-width="3" /></svg>